<mxfile host="app.diagrams.net" modified="2023-02-06T09:11:15.937Z" agent="5.0 (Windows NT 10.0; Win64; x64) AppleWebKit/537.36 (KHTML, like Gecko) Chrome/109.0.0.0 Safari/537.36" version="20.6.0" etag="w7NuTlp3ZxSdaAYUOjFs" type="github" pages="2">
  <diagram id="BzSqjeJ4tKStLbJzRWC8" name="第 1 页">
    <mxGraphModel dx="1422" dy="762" grid="1" gridSize="10" guides="1" tooltips="1" connect="1" arrows="1" fold="1" page="1" pageScale="1" pageWidth="827" pageHeight="1169" math="0" shadow="0">
      <root>
        <mxCell id="0" />
        <mxCell id="1" parent="0" />
      </root>
    </mxGraphModel>
  </diagram>
  <diagram id="7qn6ukzktn9SvD3_THig" name="宁桥路&amp;科技网">
    <mxGraphModel dx="2074" dy="677" grid="1" gridSize="10" guides="1" tooltips="1" connect="1" arrows="1" fold="1" page="1" pageScale="1" pageWidth="827" pageHeight="1169" math="0" shadow="0">
      <root>
        <mxCell id="0" />
        <mxCell id="1" parent="0" />
        <UserObject label="" plantUmlData="{&quot;data&quot;:&quot;@startuml 法人结算宁桥路物理图\n!include &lt;logos/oracle&gt;\ntitle 法人结算物理图\n\n&#39; 背景颜色\nskinparam backgroundColor #EEEBDC\n&#39; 手画\n&#39; skinparam handwritten true\n\nskinparam sequence {\n&#39; 箭头\n&#39; ArrowColor DeepSkyBlue\n&#39; 箭头颜色\n&#39; ActorBorderColor DeepSkyBlue\n\nLifeLineBorderColor blue\nLifeLineBackgroundColor #A9DCDF\nParticipantBorderColor DeepSkyBlue\nParticipantBackgroundColor DodgerBlue\nParticipantFontName Impact\nParticipantFontSize 17\nParticipantFontColor #A9DCDF\nActorBackgroundColor aqua\n\n}\nactor users  #pink;line:red;line.bold;text:red[\n    内网用户\n]\n\nrectangle 统一支付{\n    node tyzfJboss[\n            Jboss(不启动)\n            ----\n            10.169.9.16\n            ----\n            8080\n    ]\n}\nrectangle 科技网机房{\n    rectangle 科技网服务{\n        node jboss3[\n            Jboss(不启动)\n            ----\n            10.170.6.11\n            ----\n            8080\n        ]\n    }\n    rectangle 科技网数据库{\n        node oracle3[\n            oracle(主)\n            &lt;$oracle&gt;\n            ----\n            10.170.5.100\n            ----\n            1521\n        ]\n    }\n\n    rectangle 科技网外围{\n        node prop3Local[\n            prop通用交易接口\n            ----\n            10.170.6.11\n            ----\n\n        ]\n        node prop3Server[\n            prop3服务端\n            ----\n            10.170.43.14\n            ----\n            8888\n        ]\n        prop3Local &lt;-&gt; prop3Server:实时\n    }\n   \n\n    users =[#red]=&gt; jboss3\n    \n\n    jboss3 =[#gray]=&gt; oracle3\n    \n    jboss3 =[#red]=&gt; prop3Local\n\n}\n\nrectangle 宁桥路机房{\n    rectangle 服务{\n        node jboss1[\n            Jboss(启动)\n            ----\n            10.169.6.10\n            ----\n            8080\n        ]\n\n        node jboss2[\n            Jboss(不启动)\n            ----\n            10.169.6.11\n            ----\n            8080\n        ]\n    }\n    rectangle 数据库{\n        node oracle1[\n            oracle(主)\n            &lt;$oracle&gt;\n            ----\n            10.169.5.100\n            ----\n            1521\n        ]\n\n        node oracle2[\n            oracle(备)\n            &lt;$oracle&gt;\n            ----\n            10.169.5.101\n            ----\n            1521\n        ]\n    }\n\n    rectangle 外围{\n        node propLocal[\n            prop通用交易接口\n            ----\n            10.169.6.10\n            ----\n\n        ]\n        node propServer[\n            prop服务端\n            ----\n            10.169.43.14\n            ----\n            8888\n        ]\n        propLocal &lt;-&gt; propServer:实时\n    }\n\n\n    &#39; Oracle\n    oracle1 -&gt; oracle2 : 实时同步\n    &#39; Oracle\n    oracle1 -&gt; oracle3 : 实时同步\n\n    users =[#red]=&gt; jboss1\n    users =[#red]=&gt; jboss2\n\n    jboss1 =[#gray]=&gt; oracle1\n    jboss1 =[#gray]=&gt; oracle2\n\n    jboss2 =[#gray]=&gt; oracle1\n    jboss2 =[#gray]=&gt; oracle2\n\n    jboss1 =[#red]=&gt; propLocal\n    jboss2 =[#red]=&gt; propLocal\n\n    jboss1 =[#red]=&gt; tyzfJboss\n    jboss2 =[#red]=&gt; tyzfJboss\n}\n\n&quot;,&quot;format&quot;:&quot;svg&quot;}" id="A7FKOghzSEjcryzNPMxH-2">
          <mxCell style="shape=image;noLabel=1;verticalAlign=top;aspect=fixed;imageAspect=0;image=data:image/svg+xml,PD94bWwgdmVyc2lvbj0iMS4wIiBlbmNvZGluZz0iVVRGLTgiIHN0YW5kYWxvbmU9Im5vIj8+PHN2ZyB4bWxucz0iaHR0cDovL3d3dy53My5vcmcvMjAwMC9zdmciIHhtbG5zOnhsaW5rPSJodHRwOi8vd3d3LnczLm9yZy8xOTk5L3hsaW5rIiBjb250ZW50U3R5bGVUeXBlPSJ0ZXh0L2NzcyIgaGVpZ2h0PSI2MDlweCIgcHJlc2VydmVBc3BlY3RSYXRpbz0ibm9uZSIgc3R5bGU9IndpZHRoOjE2OTJweDtoZWlnaHQ6NjA5cHg7YmFja2dyb3VuZDojRUVFQkRDOyIgdmVyc2lvbj0iMS4xIiB2aWV3Qm94PSIwIDAgMTY5MiA2MDkiIHdpZHRoPSIxNjkycHgiIHpvb21BbmRQYW49Im1hZ25pZnkiPjxkZWZzLz48Zz48cmVjdCBmaWxsPSIjRUVFQkRDIiBoZWlnaHQ9IjI0Ljk4NDQiIHN0eWxlPSJzdHJva2U6IzAwMDAwMDAwO3N0cm9rZS13aWR0aDoxLjA7IiB3aWR0aD0iMTA4IiB4PSI3ODUiIHk9IjUiLz48dGV4dCBmaWxsPSIjMDAwMDAwIiBmb250LWZhbWlseT0ic2Fucy1zZXJpZiIgZm9udC1zaXplPSIxNCIgZm9udC13ZWlnaHQ9ImJvbGQiIGxlbmd0aEFkanVzdD0ic3BhY2luZyIgdGV4dExlbmd0aD0iOTgiIHg9Ijc5MCIgeT0iMjMuMjM0NCI+5rOV5Lq657uT566X54mp55CG5Zu+PC90ZXh0PjwhLS1NRDU9WzU2MTg3Njg4YTcwZGU5OTk1ODdkZThiMzNiZjcyOTBhXQpjbHVzdGVyIOe7n+S4gOaUr+S7mC0tPjxnIGlkPSJjbHVzdGVyX+e7n+S4gOaUr+S7mCI+PHJlY3QgaGVpZ2h0PSIxNTciIHJ4PSIyLjUiIHJ5PSIyLjUiIHN0eWxlPSJzdHJva2U6IzE4MTgxODtzdHJva2Utd2lkdGg6MS4wO2ZpbGw6bm9uZTsiIHdpZHRoPSIxNjYiIHg9IjE1MjAiIHk9IjQxNi40ODQ0Ii8+PHRleHQgZmlsbD0iIzAwMDAwMCIgZm9udC1mYW1pbHk9InNhbnMtc2VyaWYiIGZvbnQtc2l6ZT0iMTQiIGZvbnQtd2VpZ2h0PSJib2xkIiBsZW5ndGhBZGp1c3Q9InNwYWNpbmciIHRleHRMZW5ndGg9IjU2IiB4PSIxNTc1IiB5PSI0MzEuNzE4OCI+57uf5LiA5pSv5LuYPC90ZXh0PjwvZz48IS0tTUQ1PVs4NjI2YWM3NzFiOTRjYjBjZTY3ZWY1Zjk4MGM3NWZiZV0KY2x1c3RlciDnp5HmioDnvZHmnLrmiL8tLT48ZyBpZD0iY2x1c3Rlcl/np5HmioDnvZHmnLrmiL8iPjxyZWN0IGhlaWdodD0iNDM5IiByeD0iMi41IiByeT0iMi41IiBzdHlsZT0ic3Ryb2tlOiMxODE4MTg7c3Ryb2tlLXdpZHRoOjEuMDtmaWxsOm5vbmU7IiB3aWR0aD0iNjE3IiB4PSI3IiB5PSIxNjQuOTg0NCIvPjx0ZXh0IGZpbGw9IiMwMDAwMDAiIGZvbnQtZmFtaWx5PSJzYW5zLXNlcmlmIiBmb250LXNpemU9IjE0IiBmb250LXdlaWdodD0iYm9sZCIgbGVuZ3RoQWRqdXN0PSJzcGFjaW5nIiB0ZXh0TGVuZ3RoPSI3MCIgeD0iMjgwLjUiIHk9IjE4MC4yMTg4Ij7np5HmioDnvZHmnLrmiL88L3RleHQ+PC9nPjwhLS1NRDU9WzVlZGY1NTBmMTJhNDMyZGEyMDFlYTQ1OTc1ZGVjYmFhXQpjbHVzdGVyIOenkeaKgOe9keacjeWKoS0tPjxnIGlkPSJjbHVzdGVyX+enkeaKgOe9keacjeWKoSI+PHJlY3QgaGVpZ2h0PSIxNTciIHJ4PSIyLjUiIHJ5PSIyLjUiIHN0eWxlPSJzdHJva2U6IzE4MTgxODtzdHJva2Utd2lkdGg6MS4wO2ZpbGw6bm9uZTsiIHdpZHRoPSIxNjYiIHg9IjQzMCIgeT0iMjA1Ljk4NDQiLz48dGV4dCBmaWxsPSIjMDAwMDAwIiBmb250LWZhbWlseT0ic2Fucy1zZXJpZiIgZm9udC1zaXplPSIxNCIgZm9udC13ZWlnaHQ9ImJvbGQiIGxlbmd0aEFkanVzdD0ic3BhY2luZyIgdGV4dExlbmd0aD0iNzAiIHg9IjQ3OCIgeT0iMjIxLjIxODgiPuenkeaKgOe9keacjeWKoTwvdGV4dD48L2c+PCEtLU1ENT1bZWM4ZTQ0NWFlMTI1NWM1MzdiODc1OWViNWQwYjVmMDNdCmNsdXN0ZXIg56eR5oqA572R5pWw5o2u5bqTLS0+PGcgaWQ9ImNsdXN0ZXJf56eR5oqA572R5pWw5o2u5bqTIj48cmVjdCBoZWlnaHQ9IjE3MCIgcng9IjIuNSIgcnk9IjIuNSIgc3R5bGU9InN0cm9rZTojMTgxODE4O3N0cm9rZS13aWR0aDoxLjA7ZmlsbDpub25lOyIgd2lkdGg9IjE3NCIgeD0iNDI2IiB5PSI0MDkuOTg0NCIvPjx0ZXh0IGZpbGw9IiMwMDAwMDAiIGZvbnQtZmFtaWx5PSJzYW5zLXNlcmlmIiBmb250LXNpemU9IjE0IiBmb250LXdlaWdodD0iYm9sZCIgbGVuZ3RoQWRqdXN0PSJzcGFjaW5nIiB0ZXh0TGVuZ3RoPSI4NCIgeD0iNDcxIiB5PSI0MjUuMjE4OCI+56eR5oqA572R5pWw5o2u5bqTPC90ZXh0PjwvZz48IS0tTUQ1PVthM2QwMjBkOGU1MDFmNTRmNmU5Y2ZjYThkN2NiZWQ0NF0KY2x1c3RlciDnp5HmioDnvZHlpJblm7QtLT48ZyBpZD0iY2x1c3Rlcl/np5HmioDnvZHlpJblm7QiPjxyZWN0IGhlaWdodD0iMTU3IiByeD0iMi41IiByeT0iMi41IiBzdHlsZT0ic3Ryb2tlOiMxODE4MTg7c3Ryb2tlLXdpZHRoOjEuMDtmaWxsOm5vbmU7IiB3aWR0aD0iMzcxIiB4PSIzMSIgeT0iNDE2LjQ4NDQiLz48dGV4dCBmaWxsPSIjMDAwMDAwIiBmb250LWZhbWlseT0ic2Fucy1zZXJpZiIgZm9udC1zaXplPSIxNCIgZm9udC13ZWlnaHQ9ImJvbGQiIGxlbmd0aEFkanVzdD0ic3BhY2luZyIgdGV4dExlbmd0aD0iNzAiIHg9IjE4MS41IiB5PSI0MzEuNzE4OCI+56eR5oqA572R5aSW5Zu0PC90ZXh0PjwvZz48IS0tTUQ1PVsxM2E2NGQ5MGMyODNjYzcxYjBhNzYzZDdmNDY5Y2UxNl0KY2x1c3RlciDlroHmoaXot6/mnLrmiL8tLT48ZyBpZD0iY2x1c3Rlcl/lroHmoaXot6/mnLrmiL8iPjxyZWN0IGhlaWdodD0iNDM5IiByeD0iMi41IiByeT0iMi41IiBzdHlsZT0ic3Ryb2tlOiMxODE4MTg7c3Ryb2tlLXdpZHRoOjEuMDtmaWxsOm5vbmU7IiB3aWR0aD0iODQ4IiB4PSI2NDgiIHk9IjE2NC45ODQ0Ii8+PHRleHQgZmlsbD0iIzAwMDAwMCIgZm9udC1mYW1pbHk9InNhbnMtc2VyaWYiIGZvbnQtc2l6ZT0iMTQiIGZvbnQtd2VpZ2h0PSJib2xkIiBsZW5ndGhBZGp1c3Q9InNwYWNpbmciIHRleHRMZW5ndGg9IjcwIiB4PSIxMDM3IiB5PSIxODAuMjE4OCI+5a6B5qGl6Lev5py65oi/PC90ZXh0PjwvZz48IS0tTUQ1PVtmMmMwOTFlZGRlMjc3YzNmMzc1MjU3YTllOTViY2FkMV0KY2x1c3RlciDmnI3liqEtLT48ZyBpZD0iY2x1c3Rlcl/mnI3liqEiPjxyZWN0IGhlaWdodD0iMTU3IiByeD0iMi41IiByeT0iMi41IiBzdHlsZT0ic3Ryb2tlOiMxODE4MTg7c3Ryb2tlLXdpZHRoOjEuMDtmaWxsOm5vbmU7IiB3aWR0aD0iMzIxIiB4PSIxMDc4IiB5PSIyMDUuOTg0NCIvPjx0ZXh0IGZpbGw9IiMwMDAwMDAiIGZvbnQtZmFtaWx5PSJzYW5zLXNlcmlmIiBmb250LXNpemU9IjE0IiBmb250LXdlaWdodD0iYm9sZCIgbGVuZ3RoQWRqdXN0PSJzcGFjaW5nIiB0ZXh0TGVuZ3RoPSIyOCIgeD0iMTIyNC41IiB5PSIyMjEuMjE4OCI+5pyN5YqhPC90ZXh0PjwvZz48IS0tTUQ1PVs2YmU2YTJhYWI5NzUwYzE2MDE5ZDk2Y2U4MTg4NWJhMF0KY2x1c3RlciDmlbDmja7lupMtLT48ZyBpZD0iY2x1c3Rlcl/mlbDmja7lupMiPjxyZWN0IGhlaWdodD0iMTcwIiByeD0iMi41IiByeT0iMi41IiBzdHlsZT0ic3Ryb2tlOiMxODE4MTg7c3Ryb2tlLXdpZHRoOjEuMDtmaWxsOm5vbmU7IiB3aWR0aD0iNDA1IiB4PSIxMDY3IiB5PSI0MDkuOTg0NCIvPjx0ZXh0IGZpbGw9IiMwMDAwMDAiIGZvbnQtZmFtaWx5PSJzYW5zLXNlcmlmIiBmb250LXNpemU9IjE0IiBmb250LXdlaWdodD0iYm9sZCIgbGVuZ3RoQWRqdXN0PSJzcGFjaW5nIiB0ZXh0TGVuZ3RoPSI0MiIgeD0iMTI0OC41IiB5PSI0MjUuMjE4OCI+5pWw5o2u5bqTPC90ZXh0PjwvZz48IS0tTUQ1PVszN2JjZDQ5YmQ4YjJlYzg0OTZhY2ViNjg2ZGMxODQxM10KY2x1c3RlciDlpJblm7QtLT48ZyBpZD0iY2x1c3Rlcl/lpJblm7QiPjxyZWN0IGhlaWdodD0iMTU3IiByeD0iMi41IiByeT0iMi41IiBzdHlsZT0ic3Ryb2tlOiMxODE4MTg7c3Ryb2tlLXdpZHRoOjEuMDtmaWxsOm5vbmU7IiB3aWR0aD0iMzcxIiB4PSI2NzIiIHk9IjQxNi40ODQ0Ii8+PHRleHQgZmlsbD0iIzAwMDAwMCIgZm9udC1mYW1pbHk9InNhbnMtc2VyaWYiIGZvbnQtc2l6ZT0iMTQiIGZvbnQtd2VpZ2h0PSJib2xkIiBsZW5ndGhBZGp1c3Q9InNwYWNpbmciIHRleHRMZW5ndGg9IjI4IiB4PSI4NDMuNSIgeT0iNDMxLjcxODgiPuWkluWbtDwvdGV4dD48L2c+PCEtLU1ENT1bOWI4MDdiYjJjZTAzYmY5NzIxOGM5Y2MwNTZiZmIwM2RdCmVudGl0eSB0eXpmSmJvc3MtLT48ZyBpZD0iZWxlbV90eXpmSmJvc3MiPjxwb2x5Z29uIGZpbGw9IiNGMUYxRjEiIHBvaW50cz0iMTUzNiw0NzYuNDg0NCwxNTQ2LDQ2Ni40ODQ0LDE2NzAsNDY2LjQ4NDQsMTY3MCw1NDcuNDM3NSwxNjYwLDU1Ny40Mzc1LDE1MzYsNTU3LjQzNzUsMTUzNiw0NzYuNDg0NCIgc3R5bGU9InN0cm9rZTojMTgxODE4O3N0cm9rZS13aWR0aDowLjU7Ii8+PGxpbmUgc3R5bGU9InN0cm9rZTojMTgxODE4O3N0cm9rZS13aWR0aDowLjU7IiB4MT0iMTY2MCIgeDI9IjE2NzAiIHkxPSI0NzYuNDg0NCIgeTI9IjQ2Ni40ODQ0Ii8+PGxpbmUgc3R5bGU9InN0cm9rZTojMTgxODE4O3N0cm9rZS13aWR0aDowLjU7IiB4MT0iMTUzNiIgeDI9IjE2NjAiIHkxPSI0NzYuNDg0NCIgeTI9IjQ3Ni40ODQ0Ii8+PGxpbmUgc3R5bGU9InN0cm9rZTojMTgxODE4O3N0cm9rZS13aWR0aDowLjU7IiB4MT0iMTY2MCIgeDI9IjE2NjAiIHkxPSI0NzYuNDg0NCIgeTI9IjU1Ny40Mzc1Ii8+PHRleHQgZmlsbD0iIzAwMDAwMCIgZm9udC1mYW1pbHk9InNhbnMtc2VyaWYiIGZvbnQtc2l6ZT0iMTQiIGxlbmd0aEFkanVzdD0ic3BhY2luZyIgdGV4dExlbmd0aD0iOTQiIHg9IjE1NTEiIHk9IjQ5OS43MTg4Ij5KYm9zcyjkuI3lkK/liqgpPC90ZXh0PjxsaW5lIHN0eWxlPSJzdHJva2U6IzE4MTgxODtzdHJva2Utd2lkdGg6MS4wOyIgeDE9IjE1MzYiIHgyPSIxNjYwIiB5MT0iNTAxLjQ2ODgiIHkyPSI1MDEuNDY4OCIvPjxsaW5lIHN0eWxlPSJzdHJva2U6IzE4MTgxODtzdHJva2Utd2lkdGg6MS4wOyIgeDE9IjE2NjAiIHgyPSIxNjcwIiB5MT0iNTAxLjQ2ODgiIHkyPSI0OTEuNDY4OCIvPjx0ZXh0IGZpbGw9IiMwMDAwMDAiIGZvbnQtZmFtaWx5PSJzYW5zLXNlcmlmIiBmb250LXNpemU9IjE0IiBsZW5ndGhBZGp1c3Q9InNwYWNpbmciIHRleHRMZW5ndGg9Ijc3IiB4PSIxNTUxIiB5PSI1MTguNzAzMSI+MTAuMTY5LjkuMTY8L3RleHQ+PGxpbmUgc3R5bGU9InN0cm9rZTojMTgxODE4O3N0cm9rZS13aWR0aDoxLjA7IiB4MT0iMTUzNiIgeDI9IjE2NjAiIHkxPSI1MjQuNDUzMSIgeTI9IjUyNC40NTMxIi8+PGxpbmUgc3R5bGU9InN0cm9rZTojMTgxODE4O3N0cm9rZS13aWR0aDoxLjA7IiB4MT0iMTY2MCIgeDI9IjE2NzAiIHkxPSI1MjQuNDUzMSIgeTI9IjUxNC40NTMxIi8+PHRleHQgZmlsbD0iIzAwMDAwMCIgZm9udC1mYW1pbHk9InNhbnMtc2VyaWYiIGZvbnQtc2l6ZT0iMTQiIGxlbmd0aEFkanVzdD0ic3BhY2luZyIgdGV4dExlbmd0aD0iMjgiIHg9IjE1NTEiIHk9IjU0MS42ODc1Ij44MDgwPC90ZXh0PjwvZz48IS0tTUQ1PVs2YjMwMmU2MjIzNzRhNjM5OGE4NmEwZTFhYmU0YWE1OV0KZW50aXR5IGpib3NzMy0tPjxnIGlkPSJlbGVtX2pib3NzMyI+PHBvbHlnb24gZmlsbD0iI0YxRjFGMSIgcG9pbnRzPSI0NDYsMjY1Ljk4NDQsNDU2LDI1NS45ODQ0LDU4MCwyNTUuOTg0NCw1ODAsMzM2LjkzNzUsNTcwLDM0Ni45Mzc1LDQ0NiwzNDYuOTM3NSw0NDYsMjY1Ljk4NDQiIHN0eWxlPSJzdHJva2U6IzE4MTgxODtzdHJva2Utd2lkdGg6MC41OyIvPjxsaW5lIHN0eWxlPSJzdHJva2U6IzE4MTgxODtzdHJva2Utd2lkdGg6MC41OyIgeDE9IjU3MCIgeDI9IjU4MCIgeTE9IjI2NS45ODQ0IiB5Mj0iMjU1Ljk4NDQiLz48bGluZSBzdHlsZT0ic3Ryb2tlOiMxODE4MTg7c3Ryb2tlLXdpZHRoOjAuNTsiIHgxPSI0NDYiIHgyPSI1NzAiIHkxPSIyNjUuOTg0NCIgeTI9IjI2NS45ODQ0Ii8+PGxpbmUgc3R5bGU9InN0cm9rZTojMTgxODE4O3N0cm9rZS13aWR0aDowLjU7IiB4MT0iNTcwIiB4Mj0iNTcwIiB5MT0iMjY1Ljk4NDQiIHkyPSIzNDYuOTM3NSIvPjx0ZXh0IGZpbGw9IiMwMDAwMDAiIGZvbnQtZmFtaWx5PSJzYW5zLXNlcmlmIiBmb250LXNpemU9IjE0IiBsZW5ndGhBZGp1c3Q9InNwYWNpbmciIHRleHRMZW5ndGg9Ijk0IiB4PSI0NjEiIHk9IjI4OS4yMTg4Ij5KYm9zcyjkuI3lkK/liqgpPC90ZXh0PjxsaW5lIHN0eWxlPSJzdHJva2U6IzE4MTgxODtzdHJva2Utd2lkdGg6MS4wOyIgeDE9IjQ0NiIgeDI9IjU3MCIgeTE9IjI5MC45Njg4IiB5Mj0iMjkwLjk2ODgiLz48bGluZSBzdHlsZT0ic3Ryb2tlOiMxODE4MTg7c3Ryb2tlLXdpZHRoOjEuMDsiIHgxPSI1NzAiIHgyPSI1ODAiIHkxPSIyOTAuOTY4OCIgeTI9IjI4MC45Njg4Ii8+PHRleHQgZmlsbD0iIzAwMDAwMCIgZm9udC1mYW1pbHk9InNhbnMtc2VyaWYiIGZvbnQtc2l6ZT0iMTQiIGxlbmd0aEFkanVzdD0ic3BhY2luZyIgdGV4dExlbmd0aD0iNzciIHg9IjQ2MSIgeT0iMzA4LjIwMzEiPjEwLjE3MC42LjExPC90ZXh0PjxsaW5lIHN0eWxlPSJzdHJva2U6IzE4MTgxODtzdHJva2Utd2lkdGg6MS4wOyIgeDE9IjQ0NiIgeDI9IjU3MCIgeTE9IjMxMy45NTMxIiB5Mj0iMzEzLjk1MzEiLz48bGluZSBzdHlsZT0ic3Ryb2tlOiMxODE4MTg7c3Ryb2tlLXdpZHRoOjEuMDsiIHgxPSI1NzAiIHgyPSI1ODAiIHkxPSIzMTMuOTUzMSIgeTI9IjMwMy45NTMxIi8+PHRleHQgZmlsbD0iIzAwMDAwMCIgZm9udC1mYW1pbHk9InNhbnMtc2VyaWYiIGZvbnQtc2l6ZT0iMTQiIGxlbmd0aEFkanVzdD0ic3BhY2luZyIgdGV4dExlbmd0aD0iMjgiIHg9IjQ2MSIgeT0iMzMxLjE4NzUiPjgwODA8L3RleHQ+PC9nPjwhLS1NRDU9WzFiMzc0NmQ3ODNhMjY5MzJlNzllMzc4ZjU1ZjVjYjUxXQplbnRpdHkgb3JhY2xlMy0tPjxnIGlkPSJlbGVtX29yYWNsZTMiPjxwb2x5Z29uIGZpbGw9IiNGMUYxRjEiIHBvaW50cz0iNDQyLDQ2OS45ODQ0LDQ1Miw0NTkuOTg0NCw1ODQsNDU5Ljk4NDQsNTg0LDU1My45Mzc1LDU3NCw1NjMuOTM3NSw0NDIsNTYzLjkzNzUsNDQyLDQ2OS45ODQ0IiBzdHlsZT0ic3Ryb2tlOiMxODE4MTg7c3Ryb2tlLXdpZHRoOjAuNTsiLz48bGluZSBzdHlsZT0ic3Ryb2tlOiMxODE4MTg7c3Ryb2tlLXdpZHRoOjAuNTsiIHgxPSI1NzQiIHgyPSI1ODQiIHkxPSI0NjkuOTg0NCIgeTI9IjQ1OS45ODQ0Ii8+PGxpbmUgc3R5bGU9InN0cm9rZTojMTgxODE4O3N0cm9rZS13aWR0aDowLjU7IiB4MT0iNDQyIiB4Mj0iNTc0IiB5MT0iNDY5Ljk4NDQiIHkyPSI0NjkuOTg0NCIvPjxsaW5lIHN0eWxlPSJzdHJva2U6IzE4MTgxODtzdHJva2Utd2lkdGg6MC41OyIgeDE9IjU3NCIgeDI9IjU3NCIgeTE9IjQ2OS45ODQ0IiB5Mj0iNTYzLjkzNzUiLz48dGV4dCBmaWxsPSIjMDAwMDAwIiBmb250LWZhbWlseT0ic2Fucy1zZXJpZiIgZm9udC1zaXplPSIxNCIgbGVuZ3RoQWRqdXN0PSJzcGFjaW5nIiB0ZXh0TGVuZ3RoPSI3MiIgeD0iNDU3IiB5PSI0OTMuMjE4OCI+b3JhY2xlKOS4uyk8L3RleHQ+PGltYWdlIGhlaWdodD0iMTMiIHdpZHRoPSIxMDIiIHg9IjQ1NyIgeGxpbms6aHJlZj0iZGF0YTppbWFnZS9wbmc7YmFzZTY0LGlWQk9SdzBLR2dvQUFBQU5TVWhFVWdBQUFHWUFBQUFOQ0FJQUFBRFVqb3lzQUFBQi9rbEVRVlI0WHMyV2EyR0VNQkNFejJJa0lBRUpKd0VKSitFa0lPRWtJQUVIWFJpWURydDUwZlpIdjE5SmRySWhreGVQVlhnK242bkZQTS9heGZDS0FxNVhCTEwzKyswRFY1Wmx1ZVROWWJKcG1sanV4MGJYUEJHejZORXBkZGgzY3hnZksvUDVmTmpMb1RJZkUxUldBc3E3bHZXc1JOcXpiWll4ZTlwZHRJa3RPYXg5SEVjcWw5TTFWQzNrTzV6WXhtU3Y3MjhVNG9KNXhRNmp3ekJZVGovTUNjUzNMTE9wTWJsTnBPUUF4SnRsVkd1V0NrNlBzbzJrbWdoazhWd3psUGFFS05pRUs1b2VibGwySy9uamxwcWdDK2FQY3FkbFVZYjJkRjBBVmdrYXM0NW42YmVzWHdrT3kyeXIrMGdWN1lWeTlNSUJtWnN6ejZ6ZSttaEpNZ2ZLMk5LazM0aHp0RzA2VFZaYTFueW5IQnlHWlZnMjU5Q0grSklsNTg0cU4vSHI5VUlMNzFDVjFmbUJaVTJnLy90ZGhtb1czcUJPcVkzQWhmZytxS2JPRHl6ek95b0EvYS91TXV4TmxQVmdXdll6NjRGdE5FWUJIeW1iMjVpRGZhRkhlZjRQZDlrYWxyU0owNk04WHUreXltRUVMc3BxUkJjbUZiSkZiaGx4Sy9sbW1VNXZDcTg3c1dPbGk4OVRocXF6YkpVN080VlA0VFpraTMyRE93V0RiRlZvV0xWUTVhOFkzTEpNUDlXK3hGMGdqdVB2M3k1YTl1bEJrNklsV2daaUZ4N0plRm9qN082cUZZYjkwcUZsVFpCWi8yWXJtT3l3RE9qQ2x1QXJSdEJlc215VmVjSWpWcjB1QjllU3R4amYweExzNndNNTNIU2FScHZtQ3didnExRTA1ZlB4QUFBQUFFbEZUa1N1UW1DQyIgeT0iNDk0Ljk2ODgiLz48bGluZSBzdHlsZT0ic3Ryb2tlOiMxODE4MTg7c3Ryb2tlLXdpZHRoOjEuMDsiIHgxPSI0NDIiIHgyPSI1NzQiIHkxPSI1MDcuOTY4OCIgeTI9IjUwNy45Njg4Ii8+PGxpbmUgc3R5bGU9InN0cm9rZTojMTgxODE4O3N0cm9rZS13aWR0aDoxLjA7IiB4MT0iNTc0IiB4Mj0iNTg0IiB5MT0iNTA3Ljk2ODgiIHkyPSI0OTcuOTY4OCIvPjx0ZXh0IGZpbGw9IiMwMDAwMDAiIGZvbnQtZmFtaWx5PSJzYW5zLXNlcmlmIiBmb250LXNpemU9IjE0IiBsZW5ndGhBZGp1c3Q9InNwYWNpbmciIHRleHRMZW5ndGg9Ijg0IiB4PSI0NTciIHk9IjUyNS4yMDMxIj4xMC4xNzAuNS4xMDA8L3RleHQ+PGxpbmUgc3R5bGU9InN0cm9rZTojMTgxODE4O3N0cm9rZS13aWR0aDoxLjA7IiB4MT0iNDQyIiB4Mj0iNTc0IiB5MT0iNTMwLjk1MzEiIHkyPSI1MzAuOTUzMSIvPjxsaW5lIHN0eWxlPSJzdHJva2U6IzE4MTgxODtzdHJva2Utd2lkdGg6MS4wOyIgeDE9IjU3NCIgeDI9IjU4NCIgeTE9IjUzMC45NTMxIiB5Mj0iNTIwLjk1MzEiLz48dGV4dCBmaWxsPSIjMDAwMDAwIiBmb250LWZhbWlseT0ic2Fucy1zZXJpZiIgZm9udC1zaXplPSIxNCIgbGVuZ3RoQWRqdXN0PSJzcGFjaW5nIiB0ZXh0TGVuZ3RoPSIyOCIgeD0iNDU3IiB5PSI1NDguMTg3NSI+MTUyMTwvdGV4dD48L2c+PCEtLU1ENT1bOTNkN2JmMDQ2YTBlYzBhYjNmMzc4MTRmYmU1MmZhMTFdCmVudGl0eSBwcm9wM0xvY2FsLS0+PGcgaWQ9ImVsZW1fcHJvcDNMb2NhbCI+PHBvbHlnb24gZmlsbD0iI0YxRjFGMSIgcG9pbnRzPSI0Nyw0NzYuNDg0NCw1Nyw0NjYuNDg0NCwxOTksNDY2LjQ4NDQsMTk5LDU0Ny40Mzc1LDE4OSw1NTcuNDM3NSw0Nyw1NTcuNDM3NSw0Nyw0NzYuNDg0NCIgc3R5bGU9InN0cm9rZTojMTgxODE4O3N0cm9rZS13aWR0aDowLjU7Ii8+PGxpbmUgc3R5bGU9InN0cm9rZTojMTgxODE4O3N0cm9rZS13aWR0aDowLjU7IiB4MT0iMTg5IiB4Mj0iMTk5IiB5MT0iNDc2LjQ4NDQiIHkyPSI0NjYuNDg0NCIvPjxsaW5lIHN0eWxlPSJzdHJva2U6IzE4MTgxODtzdHJva2Utd2lkdGg6MC41OyIgeDE9IjQ3IiB4Mj0iMTg5IiB5MT0iNDc2LjQ4NDQiIHkyPSI0NzYuNDg0NCIvPjxsaW5lIHN0eWxlPSJzdHJva2U6IzE4MTgxODtzdHJva2Utd2lkdGg6MC41OyIgeDE9IjE4OSIgeDI9IjE4OSIgeTE9IjQ3Ni40ODQ0IiB5Mj0iNTU3LjQzNzUiLz48dGV4dCBmaWxsPSIjMDAwMDAwIiBmb250LWZhbWlseT0ic2Fucy1zZXJpZiIgZm9udC1zaXplPSIxNCIgbGVuZ3RoQWRqdXN0PSJzcGFjaW5nIiB0ZXh0TGVuZ3RoPSIxMTIiIHg9IjYyIiB5PSI0OTkuNzE4OCI+cHJvcOmAmueUqOS6pOaYk+aOpeWPozwvdGV4dD48bGluZSBzdHlsZT0ic3Ryb2tlOiMxODE4MTg7c3Ryb2tlLXdpZHRoOjEuMDsiIHgxPSI0NyIgeDI9IjE4OSIgeTE9IjUwMS40Njg4IiB5Mj0iNTAxLjQ2ODgiLz48bGluZSBzdHlsZT0ic3Ryb2tlOiMxODE4MTg7c3Ryb2tlLXdpZHRoOjEuMDsiIHgxPSIxODkiIHgyPSIxOTkiIHkxPSI1MDEuNDY4OCIgeTI9IjQ5MS40Njg4Ii8+PHRleHQgZmlsbD0iIzAwMDAwMCIgZm9udC1mYW1pbHk9InNhbnMtc2VyaWYiIGZvbnQtc2l6ZT0iMTQiIGxlbmd0aEFkanVzdD0ic3BhY2luZyIgdGV4dExlbmd0aD0iNzciIHg9IjYyIiB5PSI1MTguNzAzMSI+MTAuMTcwLjYuMTE8L3RleHQ+PGxpbmUgc3R5bGU9InN0cm9rZTojMTgxODE4O3N0cm9rZS13aWR0aDoxLjA7IiB4MT0iNDciIHgyPSIxODkiIHkxPSI1MjQuNDUzMSIgeTI9IjUyNC40NTMxIi8+PGxpbmUgc3R5bGU9InN0cm9rZTojMTgxODE4O3N0cm9rZS13aWR0aDoxLjA7IiB4MT0iMTg5IiB4Mj0iMTk5IiB5MT0iNTI0LjQ1MzEiIHkyPSI1MTQuNDUzMSIvPjx0ZXh0IGZpbGw9IiMwMDAwMDAiIGZvbnQtZmFtaWx5PSJzYW5zLXNlcmlmIiBmb250LXNpemU9IjE0IiBsZW5ndGhBZGp1c3Q9InNwYWNpbmciIHRleHRMZW5ndGg9IjciIHg9IjYyIiB5PSI1NDEuNjg3NSI+wqA8L3RleHQ+PC9nPjwhLS1NRDU9W2VhZGM3MjcyYmU1ZjNhODA3NDdhMmQzNzBjY2IwYmNjXQplbnRpdHkgcHJvcDNTZXJ2ZXItLT48ZyBpZD0iZWxlbV9wcm9wM1NlcnZlciI+PHBvbHlnb24gZmlsbD0iI0YxRjFGMSIgcG9pbnRzPSIyNjIsNDc2LjQ4NDQsMjcyLDQ2Ni40ODQ0LDM4Niw0NjYuNDg0NCwzODYsNTQ3LjQzNzUsMzc2LDU1Ny40Mzc1LDI2Miw1NTcuNDM3NSwyNjIsNDc2LjQ4NDQiIHN0eWxlPSJzdHJva2U6IzE4MTgxODtzdHJva2Utd2lkdGg6MC41OyIvPjxsaW5lIHN0eWxlPSJzdHJva2U6IzE4MTgxODtzdHJva2Utd2lkdGg6MC41OyIgeDE9IjM3NiIgeDI9IjM4NiIgeTE9IjQ3Ni40ODQ0IiB5Mj0iNDY2LjQ4NDQiLz48bGluZSBzdHlsZT0ic3Ryb2tlOiMxODE4MTg7c3Ryb2tlLXdpZHRoOjAuNTsiIHgxPSIyNjIiIHgyPSIzNzYiIHkxPSI0NzYuNDg0NCIgeTI9IjQ3Ni40ODQ0Ii8+PGxpbmUgc3R5bGU9InN0cm9rZTojMTgxODE4O3N0cm9rZS13aWR0aDowLjU7IiB4MT0iMzc2IiB4Mj0iMzc2IiB5MT0iNDc2LjQ4NDQiIHkyPSI1NTcuNDM3NSIvPjx0ZXh0IGZpbGw9IiMwMDAwMDAiIGZvbnQtZmFtaWx5PSJzYW5zLXNlcmlmIiBmb250LXNpemU9IjE0IiBsZW5ndGhBZGp1c3Q9InNwYWNpbmciIHRleHRMZW5ndGg9Ijc3IiB4PSIyNzciIHk9IjQ5OS43MTg4Ij5wcm9wM+acjeWKoeerrzwvdGV4dD48bGluZSBzdHlsZT0ic3Ryb2tlOiMxODE4MTg7c3Ryb2tlLXdpZHRoOjEuMDsiIHgxPSIyNjIiIHgyPSIzNzYiIHkxPSI1MDEuNDY4OCIgeTI9IjUwMS40Njg4Ii8+PGxpbmUgc3R5bGU9InN0cm9rZTojMTgxODE4O3N0cm9rZS13aWR0aDoxLjA7IiB4MT0iMzc2IiB4Mj0iMzg2IiB5MT0iNTAxLjQ2ODgiIHkyPSI0OTEuNDY4OCIvPjx0ZXh0IGZpbGw9IiMwMDAwMDAiIGZvbnQtZmFtaWx5PSJzYW5zLXNlcmlmIiBmb250LXNpemU9IjE0IiBsZW5ndGhBZGp1c3Q9InNwYWNpbmciIHRleHRMZW5ndGg9Ijg0IiB4PSIyNzciIHk9IjUxOC43MDMxIj4xMC4xNzAuNDMuMTQ8L3RleHQ+PGxpbmUgc3R5bGU9InN0cm9rZTojMTgxODE4O3N0cm9rZS13aWR0aDoxLjA7IiB4MT0iMjYyIiB4Mj0iMzc2IiB5MT0iNTI0LjQ1MzEiIHkyPSI1MjQuNDUzMSIvPjxsaW5lIHN0eWxlPSJzdHJva2U6IzE4MTgxODtzdHJva2Utd2lkdGg6MS4wOyIgeDE9IjM3NiIgeDI9IjM4NiIgeTE9IjUyNC40NTMxIiB5Mj0iNTE0LjQ1MzEiLz48dGV4dCBmaWxsPSIjMDAwMDAwIiBmb250LWZhbWlseT0ic2Fucy1zZXJpZiIgZm9udC1zaXplPSIxNCIgbGVuZ3RoQWRqdXN0PSJzcGFjaW5nIiB0ZXh0TGVuZ3RoPSIyOCIgeD0iMjc3IiB5PSI1NDEuNjg3NSI+ODg4ODwvdGV4dD48L2c+PCEtLU1ENT1bNGVmZmQzOTRiZWFhOWI5NzU2MGU4OWEyZWQyMmJiZTBdCmVudGl0eSBqYm9zczEtLT48ZyBpZD0iZWxlbV9qYm9zczEiPjxwb2x5Z29uIGZpbGw9IiNGMUYxRjEiIHBvaW50cz0iMTA5NCwyNjUuOTg0NCwxMTA0LDI1NS45ODQ0LDEyMTQsMjU1Ljk4NDQsMTIxNCwzMzYuOTM3NSwxMjA0LDM0Ni45Mzc1LDEwOTQsMzQ2LjkzNzUsMTA5NCwyNjUuOTg0NCIgc3R5bGU9InN0cm9rZTojMTgxODE4O3N0cm9rZS13aWR0aDowLjU7Ii8+PGxpbmUgc3R5bGU9InN0cm9rZTojMTgxODE4O3N0cm9rZS13aWR0aDowLjU7IiB4MT0iMTIwNCIgeDI9IjEyMTQiIHkxPSIyNjUuOTg0NCIgeTI9IjI1NS45ODQ0Ii8+PGxpbmUgc3R5bGU9InN0cm9rZTojMTgxODE4O3N0cm9rZS13aWR0aDowLjU7IiB4MT0iMTA5NCIgeDI9IjEyMDQiIHkxPSIyNjUuOTg0NCIgeTI9IjI2NS45ODQ0Ii8+PGxpbmUgc3R5bGU9InN0cm9rZTojMTgxODE4O3N0cm9rZS13aWR0aDowLjU7IiB4MT0iMTIwNCIgeDI9IjEyMDQiIHkxPSIyNjUuOTg0NCIgeTI9IjM0Ni45Mzc1Ii8+PHRleHQgZmlsbD0iIzAwMDAwMCIgZm9udC1mYW1pbHk9InNhbnMtc2VyaWYiIGZvbnQtc2l6ZT0iMTQiIGxlbmd0aEFkanVzdD0ic3BhY2luZyIgdGV4dExlbmd0aD0iODAiIHg9IjExMDkiIHk9IjI4OS4yMTg4Ij5KYm9zcyjlkK/liqgpPC90ZXh0PjxsaW5lIHN0eWxlPSJzdHJva2U6IzE4MTgxODtzdHJva2Utd2lkdGg6MS4wOyIgeDE9IjEwOTQiIHgyPSIxMjA0IiB5MT0iMjkwLjk2ODgiIHkyPSIyOTAuOTY4OCIvPjxsaW5lIHN0eWxlPSJzdHJva2U6IzE4MTgxODtzdHJva2Utd2lkdGg6MS4wOyIgeDE9IjEyMDQiIHgyPSIxMjE0IiB5MT0iMjkwLjk2ODgiIHkyPSIyODAuOTY4OCIvPjx0ZXh0IGZpbGw9IiMwMDAwMDAiIGZvbnQtZmFtaWx5PSJzYW5zLXNlcmlmIiBmb250LXNpemU9IjE0IiBsZW5ndGhBZGp1c3Q9InNwYWNpbmciIHRleHRMZW5ndGg9Ijc3IiB4PSIxMTA5IiB5PSIzMDguMjAzMSI+MTAuMTY5LjYuMTA8L3RleHQ+PGxpbmUgc3R5bGU9InN0cm9rZTojMTgxODE4O3N0cm9rZS13aWR0aDoxLjA7IiB4MT0iMTA5NCIgeDI9IjEyMDQiIHkxPSIzMTMuOTUzMSIgeTI9IjMxMy45NTMxIi8+PGxpbmUgc3R5bGU9InN0cm9rZTojMTgxODE4O3N0cm9rZS13aWR0aDoxLjA7IiB4MT0iMTIwNCIgeDI9IjEyMTQiIHkxPSIzMTMuOTUzMSIgeTI9IjMwMy45NTMxIi8+PHRleHQgZmlsbD0iIzAwMDAwMCIgZm9udC1mYW1pbHk9InNhbnMtc2VyaWYiIGZvbnQtc2l6ZT0iMTQiIGxlbmd0aEFkanVzdD0ic3BhY2luZyIgdGV4dExlbmd0aD0iMjgiIHg9IjExMDkiIHk9IjMzMS4xODc1Ij44MDgwPC90ZXh0PjwvZz48IS0tTUQ1PVthNjMwZWM3MTIyZTBlYzUxNzI4ZDU0MzFjZDgyMTcyMl0KZW50aXR5IGpib3NzMi0tPjxnIGlkPSJlbGVtX2pib3NzMiI+PHBvbHlnb24gZmlsbD0iI0YxRjFGMSIgcG9pbnRzPSIxMjQ5LDI2NS45ODQ0LDEyNTksMjU1Ljk4NDQsMTM4MywyNTUuOTg0NCwxMzgzLDMzNi45Mzc1LDEzNzMsMzQ2LjkzNzUsMTI0OSwzNDYuOTM3NSwxMjQ5LDI2NS45ODQ0IiBzdHlsZT0ic3Ryb2tlOiMxODE4MTg7c3Ryb2tlLXdpZHRoOjAuNTsiLz48bGluZSBzdHlsZT0ic3Ryb2tlOiMxODE4MTg7c3Ryb2tlLXdpZHRoOjAuNTsiIHgxPSIxMzczIiB4Mj0iMTM4MyIgeTE9IjI2NS45ODQ0IiB5Mj0iMjU1Ljk4NDQiLz48bGluZSBzdHlsZT0ic3Ryb2tlOiMxODE4MTg7c3Ryb2tlLXdpZHRoOjAuNTsiIHgxPSIxMjQ5IiB4Mj0iMTM3MyIgeTE9IjI2NS45ODQ0IiB5Mj0iMjY1Ljk4NDQiLz48bGluZSBzdHlsZT0ic3Ryb2tlOiMxODE4MTg7c3Ryb2tlLXdpZHRoOjAuNTsiIHgxPSIxMzczIiB4Mj0iMTM3MyIgeTE9IjI2NS45ODQ0IiB5Mj0iMzQ2LjkzNzUiLz48dGV4dCBmaWxsPSIjMDAwMDAwIiBmb250LWZhbWlseT0ic2Fucy1zZXJpZiIgZm9udC1zaXplPSIxNCIgbGVuZ3RoQWRqdXN0PSJzcGFjaW5nIiB0ZXh0TGVuZ3RoPSI5NCIgeD0iMTI2NCIgeT0iMjg5LjIxODgiPkpib3NzKOS4jeWQr+WKqCk8L3RleHQ+PGxpbmUgc3R5bGU9InN0cm9rZTojMTgxODE4O3N0cm9rZS13aWR0aDoxLjA7IiB4MT0iMTI0OSIgeDI9IjEzNzMiIHkxPSIyOTAuOTY4OCIgeTI9IjI5MC45Njg4Ii8+PGxpbmUgc3R5bGU9InN0cm9rZTojMTgxODE4O3N0cm9rZS13aWR0aDoxLjA7IiB4MT0iMTM3MyIgeDI9IjEzODMiIHkxPSIyOTAuOTY4OCIgeTI9IjI4MC45Njg4Ii8+PHRleHQgZmlsbD0iIzAwMDAwMCIgZm9udC1mYW1pbHk9InNhbnMtc2VyaWYiIGZvbnQtc2l6ZT0iMTQiIGxlbmd0aEFkanVzdD0ic3BhY2luZyIgdGV4dExlbmd0aD0iNzciIHg9IjEyNjQiIHk9IjMwOC4yMDMxIj4xMC4xNjkuNi4xMTwvdGV4dD48bGluZSBzdHlsZT0ic3Ryb2tlOiMxODE4MTg7c3Ryb2tlLXdpZHRoOjEuMDsiIHgxPSIxMjQ5IiB4Mj0iMTM3MyIgeTE9IjMxMy45NTMxIiB5Mj0iMzEzLjk1MzEiLz48bGluZSBzdHlsZT0ic3Ryb2tlOiMxODE4MTg7c3Ryb2tlLXdpZHRoOjEuMDsiIHgxPSIxMzczIiB4Mj0iMTM4MyIgeTE9IjMxMy45NTMxIiB5Mj0iMzAzLjk1MzEiLz48dGV4dCBmaWxsPSIjMDAwMDAwIiBmb250LWZhbWlseT0ic2Fucy1zZXJpZiIgZm9udC1zaXplPSIxNCIgbGVuZ3RoQWRqdXN0PSJzcGFjaW5nIiB0ZXh0TGVuZ3RoPSIyOCIgeD0iMTI2NCIgeT0iMzMxLjE4NzUiPjgwODA8L3RleHQ+PC9nPjwhLS1NRDU9W2FkMDk4NTY3ZWE5NWZiNGI2NTIzMDZjYjU0ODhmZDQ1XQplbnRpdHkgb3JhY2xlMS0tPjxnIGlkPSJlbGVtX29yYWNsZTEiPjxwb2x5Z29uIGZpbGw9IiNGMUYxRjEiIHBvaW50cz0iMTA4Myw0NjkuOTg0NCwxMDkzLDQ1OS45ODQ0LDEyMjUsNDU5Ljk4NDQsMTIyNSw1NTMuOTM3NSwxMjE1LDU2My45Mzc1LDEwODMsNTYzLjkzNzUsMTA4Myw0NjkuOTg0NCIgc3R5bGU9InN0cm9rZTojMTgxODE4O3N0cm9rZS13aWR0aDowLjU7Ii8+PGxpbmUgc3R5bGU9InN0cm9rZTojMTgxODE4O3N0cm9rZS13aWR0aDowLjU7IiB4MT0iMTIxNSIgeDI9IjEyMjUiIHkxPSI0NjkuOTg0NCIgeTI9IjQ1OS45ODQ0Ii8+PGxpbmUgc3R5bGU9InN0cm9rZTojMTgxODE4O3N0cm9rZS13aWR0aDowLjU7IiB4MT0iMTA4MyIgeDI9IjEyMTUiIHkxPSI0NjkuOTg0NCIgeTI9IjQ2OS45ODQ0Ii8+PGxpbmUgc3R5bGU9InN0cm9rZTojMTgxODE4O3N0cm9rZS13aWR0aDowLjU7IiB4MT0iMTIxNSIgeDI9IjEyMTUiIHkxPSI0NjkuOTg0NCIgeTI9IjU2My45Mzc1Ii8+PHRleHQgZmlsbD0iIzAwMDAwMCIgZm9udC1mYW1pbHk9InNhbnMtc2VyaWYiIGZvbnQtc2l6ZT0iMTQiIGxlbmd0aEFkanVzdD0ic3BhY2luZyIgdGV4dExlbmd0aD0iNzIiIHg9IjEwOTgiIHk9IjQ5My4yMTg4Ij5vcmFjbGUo5Li7KTwvdGV4dD48aW1hZ2UgaGVpZ2h0PSIxMyIgd2lkdGg9IjEwMiIgeD0iMTA5OCIgeGxpbms6aHJlZj0iZGF0YTppbWFnZS9wbmc7YmFzZTY0LGlWQk9SdzBLR2dvQUFBQU5TVWhFVWdBQUFHWUFBQUFOQ0FJQUFBRFVqb3lzQUFBQi9rbEVRVlI0WHMyV2EyR0VNQkNFejJJa0lBRUpKd0VKSitFa0lPRWtJQUVIWFJpWURydDUwZlpIdjE5SmRySWhreGVQVlhnK242bkZQTS9heGZDS0FxNVhCTEwzKyswRFY1Wmx1ZVROWWJKcG1sanV4MGJYUEJHejZORXBkZGgzY3hnZksvUDVmTmpMb1RJZkUxUldBc3E3bHZXc1JOcXpiWll4ZTlwZHRJa3RPYXg5SEVjcWw5TTFWQzNrTzV6WXhtU3Y3MjhVNG9KNXhRNmp3ekJZVGovTUNjUzNMTE9wTWJsTnBPUUF4SnRsVkd1V0NrNlBzbzJrbWdoazhWd3psUGFFS05pRUs1b2VibGwySy9uamxwcWdDK2FQY3FkbFVZYjJkRjBBVmdrYXM0NW42YmVzWHdrT3kyeXIrMGdWN1lWeTlNSUJtWnN6ejZ6ZSttaEpNZ2ZLMk5LazM0aHp0RzA2VFZaYTFueW5IQnlHWlZnMjU5Q0grSklsNTg0cU4vSHI5VUlMNzFDVjFmbUJaVTJnLy90ZGhtb1czcUJPcVkzQWhmZytxS2JPRHl6ek95b0EvYS91TXV4TmxQVmdXdll6NjRGdE5FWUJIeW1iMjVpRGZhRkhlZjRQZDlrYWxyU0owNk04WHUreXltRUVMc3BxUkJjbUZiSkZiaGx4Sy9sbW1VNXZDcTg3c1dPbGk4OVRocXF6YkpVN080VlA0VFpraTMyRE93V0RiRlZvV0xWUTVhOFkzTEpNUDlXK3hGMGdqdVB2M3k1YTl1bEJrNklsV2daaUZ4N0plRm9qN082cUZZYjkwcUZsVFpCWi8yWXJtT3l3RE9qQ2x1QXJSdEJlc215VmVjSWpWcjB1QjllU3R4amYweExzNndNNTNIU2FScHZtQ3didnExRTA1ZlB4QUFBQUFFbEZUa1N1UW1DQyIgeT0iNDk0Ljk2ODgiLz48bGluZSBzdHlsZT0ic3Ryb2tlOiMxODE4MTg7c3Ryb2tlLXdpZHRoOjEuMDsiIHgxPSIxMDgzIiB4Mj0iMTIxNSIgeTE9IjUwNy45Njg4IiB5Mj0iNTA3Ljk2ODgiLz48bGluZSBzdHlsZT0ic3Ryb2tlOiMxODE4MTg7c3Ryb2tlLXdpZHRoOjEuMDsiIHgxPSIxMjE1IiB4Mj0iMTIyNSIgeTE9IjUwNy45Njg4IiB5Mj0iNDk3Ljk2ODgiLz48dGV4dCBmaWxsPSIjMDAwMDAwIiBmb250LWZhbWlseT0ic2Fucy1zZXJpZiIgZm9udC1zaXplPSIxNCIgbGVuZ3RoQWRqdXN0PSJzcGFjaW5nIiB0ZXh0TGVuZ3RoPSI4NCIgeD0iMTA5OCIgeT0iNTI1LjIwMzEiPjEwLjE2OS41LjEwMDwvdGV4dD48bGluZSBzdHlsZT0ic3Ryb2tlOiMxODE4MTg7c3Ryb2tlLXdpZHRoOjEuMDsiIHgxPSIxMDgzIiB4Mj0iMTIxNSIgeTE9IjUzMC45NTMxIiB5Mj0iNTMwLjk1MzEiLz48bGluZSBzdHlsZT0ic3Ryb2tlOiMxODE4MTg7c3Ryb2tlLXdpZHRoOjEuMDsiIHgxPSIxMjE1IiB4Mj0iMTIyNSIgeTE9IjUzMC45NTMxIiB5Mj0iNTIwLjk1MzEiLz48dGV4dCBmaWxsPSIjMDAwMDAwIiBmb250LWZhbWlseT0ic2Fucy1zZXJpZiIgZm9udC1zaXplPSIxNCIgbGVuZ3RoQWRqdXN0PSJzcGFjaW5nIiB0ZXh0TGVuZ3RoPSIyOCIgeD0iMTA5OCIgeT0iNTQ4LjE4NzUiPjE1MjE8L3RleHQ+PC9nPjwhLS1NRDU9WzA5YzY3YTEzYTA1MDYwN2Y5OTU5ZWVhYzkwZmVjNDZjXQplbnRpdHkgb3JhY2xlMi0tPjxnIGlkPSJlbGVtX29yYWNsZTIiPjxwb2x5Z29uIGZpbGw9IiNGMUYxRjEiIHBvaW50cz0iMTMxNCw0NjkuOTg0NCwxMzI0LDQ1OS45ODQ0LDE0NTYsNDU5Ljk4NDQsMTQ1Niw1NTMuOTM3NSwxNDQ2LDU2My45Mzc1LDEzMTQsNTYzLjkzNzUsMTMxNCw0NjkuOTg0NCIgc3R5bGU9InN0cm9rZTojMTgxODE4O3N0cm9rZS13aWR0aDowLjU7Ii8+PGxpbmUgc3R5bGU9InN0cm9rZTojMTgxODE4O3N0cm9rZS13aWR0aDowLjU7IiB4MT0iMTQ0NiIgeDI9IjE0NTYiIHkxPSI0NjkuOTg0NCIgeTI9IjQ1OS45ODQ0Ii8+PGxpbmUgc3R5bGU9InN0cm9rZTojMTgxODE4O3N0cm9rZS13aWR0aDowLjU7IiB4MT0iMTMxNCIgeDI9IjE0NDYiIHkxPSI0NjkuOTg0NCIgeTI9IjQ2OS45ODQ0Ii8+PGxpbmUgc3R5bGU9InN0cm9rZTojMTgxODE4O3N0cm9rZS13aWR0aDowLjU7IiB4MT0iMTQ0NiIgeDI9IjE0NDYiIHkxPSI0NjkuOTg0NCIgeTI9IjU2My45Mzc1Ii8+PHRleHQgZmlsbD0iIzAwMDAwMCIgZm9udC1mYW1pbHk9InNhbnMtc2VyaWYiIGZvbnQtc2l6ZT0iMTQiIGxlbmd0aEFkanVzdD0ic3BhY2luZyIgdGV4dExlbmd0aD0iNzIiIHg9IjEzMjkiIHk9IjQ5My4yMTg4Ij5vcmFjbGUo5aSHKTwvdGV4dD48aW1hZ2UgaGVpZ2h0PSIxMyIgd2lkdGg9IjEwMiIgeD0iMTMyOSIgeGxpbms6aHJlZj0iZGF0YTppbWFnZS9wbmc7YmFzZTY0LGlWQk9SdzBLR2dvQUFBQU5TVWhFVWdBQUFHWUFBQUFOQ0FJQUFBRFVqb3lzQUFBQi9rbEVRVlI0WHMyV2EyR0VNQkNFejJJa0lBRUpKd0VKSitFa0lPRWtJQUVIWFJpWURydDUwZlpIdjE5SmRySWhreGVQVlhnK242bkZQTS9heGZDS0FxNVhCTEwzKyswRFY1Wmx1ZVROWWJKcG1sanV4MGJYUEJHejZORXBkZGgzY3hnZksvUDVmTmpMb1RJZkUxUldBc3E3bHZXc1JOcXpiWll4ZTlwZHRJa3RPYXg5SEVjcWw5TTFWQzNrTzV6WXhtU3Y3MjhVNG9KNXhRNmp3ekJZVGovTUNjUzNMTE9wTWJsTnBPUUF4SnRsVkd1V0NrNlBzbzJrbWdoazhWd3psUGFFS05pRUs1b2VibGwySy9uamxwcWdDK2FQY3FkbFVZYjJkRjBBVmdrYXM0NW42YmVzWHdrT3kyeXIrMGdWN1lWeTlNSUJtWnN6ejZ6ZSttaEpNZ2ZLMk5LazM0aHp0RzA2VFZaYTFueW5IQnlHWlZnMjU5Q0grSklsNTg0cU4vSHI5VUlMNzFDVjFmbUJaVTJnLy90ZGhtb1czcUJPcVkzQWhmZytxS2JPRHl6ek95b0EvYS91TXV4TmxQVmdXdll6NjRGdE5FWUJIeW1iMjVpRGZhRkhlZjRQZDlrYWxyU0owNk04WHUreXltRUVMc3BxUkJjbUZiSkZiaGx4Sy9sbW1VNXZDcTg3c1dPbGk4OVRocXF6YkpVN080VlA0VFpraTMyRE93V0RiRlZvV0xWUTVhOFkzTEpNUDlXK3hGMGdqdVB2M3k1YTl1bEJrNklsV2daaUZ4N0plRm9qN082cUZZYjkwcUZsVFpCWi8yWXJtT3l3RE9qQ2x1QXJSdEJlc215VmVjSWpWcjB1QjllU3R4amYweExzNndNNTNIU2FScHZtQ3didnExRTA1ZlB4QUFBQUFFbEZUa1N1UW1DQyIgeT0iNDk0Ljk2ODgiLz48bGluZSBzdHlsZT0ic3Ryb2tlOiMxODE4MTg7c3Ryb2tlLXdpZHRoOjEuMDsiIHgxPSIxMzE0IiB4Mj0iMTQ0NiIgeTE9IjUwNy45Njg4IiB5Mj0iNTA3Ljk2ODgiLz48bGluZSBzdHlsZT0ic3Ryb2tlOiMxODE4MTg7c3Ryb2tlLXdpZHRoOjEuMDsiIHgxPSIxNDQ2IiB4Mj0iMTQ1NiIgeTE9IjUwNy45Njg4IiB5Mj0iNDk3Ljk2ODgiLz48dGV4dCBmaWxsPSIjMDAwMDAwIiBmb250LWZhbWlseT0ic2Fucy1zZXJpZiIgZm9udC1zaXplPSIxNCIgbGVuZ3RoQWRqdXN0PSJzcGFjaW5nIiB0ZXh0TGVuZ3RoPSI4NCIgeD0iMTMyOSIgeT0iNTI1LjIwMzEiPjEwLjE2OS41LjEwMTwvdGV4dD48bGluZSBzdHlsZT0ic3Ryb2tlOiMxODE4MTg7c3Ryb2tlLXdpZHRoOjEuMDsiIHgxPSIxMzE0IiB4Mj0iMTQ0NiIgeTE9IjUzMC45NTMxIiB5Mj0iNTMwLjk1MzEiLz48bGluZSBzdHlsZT0ic3Ryb2tlOiMxODE4MTg7c3Ryb2tlLXdpZHRoOjEuMDsiIHgxPSIxNDQ2IiB4Mj0iMTQ1NiIgeTE9IjUzMC45NTMxIiB5Mj0iNTIwLjk1MzEiLz48dGV4dCBmaWxsPSIjMDAwMDAwIiBmb250LWZhbWlseT0ic2Fucy1zZXJpZiIgZm9udC1zaXplPSIxNCIgbGVuZ3RoQWRqdXN0PSJzcGFjaW5nIiB0ZXh0TGVuZ3RoPSIyOCIgeD0iMTMyOSIgeT0iNTQ4LjE4NzUiPjE1MjE8L3RleHQ+PC9nPjwhLS1NRDU9W2E4MzBkMGFlMWNhOTljZWVmMGRlOTgyMGUxMTYzNjNiXQplbnRpdHkgcHJvcExvY2FsLS0+PGcgaWQ9ImVsZW1fcHJvcExvY2FsIj48cG9seWdvbiBmaWxsPSIjRjFGMUYxIiBwb2ludHM9IjY4OCw0NzYuNDg0NCw2OTgsNDY2LjQ4NDQsODQwLDQ2Ni40ODQ0LDg0MCw1NDcuNDM3NSw4MzAsNTU3LjQzNzUsNjg4LDU1Ny40Mzc1LDY4OCw0NzYuNDg0NCIgc3R5bGU9InN0cm9rZTojMTgxODE4O3N0cm9rZS13aWR0aDowLjU7Ii8+PGxpbmUgc3R5bGU9InN0cm9rZTojMTgxODE4O3N0cm9rZS13aWR0aDowLjU7IiB4MT0iODMwIiB4Mj0iODQwIiB5MT0iNDc2LjQ4NDQiIHkyPSI0NjYuNDg0NCIvPjxsaW5lIHN0eWxlPSJzdHJva2U6IzE4MTgxODtzdHJva2Utd2lkdGg6MC41OyIgeDE9IjY4OCIgeDI9IjgzMCIgeTE9IjQ3Ni40ODQ0IiB5Mj0iNDc2LjQ4NDQiLz48bGluZSBzdHlsZT0ic3Ryb2tlOiMxODE4MTg7c3Ryb2tlLXdpZHRoOjAuNTsiIHgxPSI4MzAiIHgyPSI4MzAiIHkxPSI0NzYuNDg0NCIgeTI9IjU1Ny40Mzc1Ii8+PHRleHQgZmlsbD0iIzAwMDAwMCIgZm9udC1mYW1pbHk9InNhbnMtc2VyaWYiIGZvbnQtc2l6ZT0iMTQiIGxlbmd0aEFkanVzdD0ic3BhY2luZyIgdGV4dExlbmd0aD0iMTEyIiB4PSI3MDMiIHk9IjQ5OS43MTg4Ij5wcm9w6YCa55So5Lqk5piT5o6l5Y+jPC90ZXh0PjxsaW5lIHN0eWxlPSJzdHJva2U6IzE4MTgxODtzdHJva2Utd2lkdGg6MS4wOyIgeDE9IjY4OCIgeDI9IjgzMCIgeTE9IjUwMS40Njg4IiB5Mj0iNTAxLjQ2ODgiLz48bGluZSBzdHlsZT0ic3Ryb2tlOiMxODE4MTg7c3Ryb2tlLXdpZHRoOjEuMDsiIHgxPSI4MzAiIHgyPSI4NDAiIHkxPSI1MDEuNDY4OCIgeTI9IjQ5MS40Njg4Ii8+PHRleHQgZmlsbD0iIzAwMDAwMCIgZm9udC1mYW1pbHk9InNhbnMtc2VyaWYiIGZvbnQtc2l6ZT0iMTQiIGxlbmd0aEFkanVzdD0ic3BhY2luZyIgdGV4dExlbmd0aD0iNzciIHg9IjcwMyIgeT0iNTE4LjcwMzEiPjEwLjE2OS42LjEwPC90ZXh0PjxsaW5lIHN0eWxlPSJzdHJva2U6IzE4MTgxODtzdHJva2Utd2lkdGg6MS4wOyIgeDE9IjY4OCIgeDI9IjgzMCIgeTE9IjUyNC40NTMxIiB5Mj0iNTI0LjQ1MzEiLz48bGluZSBzdHlsZT0ic3Ryb2tlOiMxODE4MTg7c3Ryb2tlLXdpZHRoOjEuMDsiIHgxPSI4MzAiIHgyPSI4NDAiIHkxPSI1MjQuNDUzMSIgeTI9IjUxNC40NTMxIi8+PHRleHQgZmlsbD0iIzAwMDAwMCIgZm9udC1mYW1pbHk9InNhbnMtc2VyaWYiIGZvbnQtc2l6ZT0iMTQiIGxlbmd0aEFkanVzdD0ic3BhY2luZyIgdGV4dExlbmd0aD0iNyIgeD0iNzAzIiB5PSI1NDEuNjg3NSI+wqA8L3RleHQ+PC9nPjwhLS1NRDU9WzEzY2IyOGI5MjlkMTI3MzcxYzhhNzZiMTg1MTliODYxXQplbnRpdHkgcHJvcFNlcnZlci0tPjxnIGlkPSJlbGVtX3Byb3BTZXJ2ZXIiPjxwb2x5Z29uIGZpbGw9IiNGMUYxRjEiIHBvaW50cz0iOTAzLDQ3Ni40ODQ0LDkxMyw0NjYuNDg0NCwxMDI3LDQ2Ni40ODQ0LDEwMjcsNTQ3LjQzNzUsMTAxNyw1NTcuNDM3NSw5MDMsNTU3LjQzNzUsOTAzLDQ3Ni40ODQ0IiBzdHlsZT0ic3Ryb2tlOiMxODE4MTg7c3Ryb2tlLXdpZHRoOjAuNTsiLz48bGluZSBzdHlsZT0ic3Ryb2tlOiMxODE4MTg7c3Ryb2tlLXdpZHRoOjAuNTsiIHgxPSIxMDE3IiB4Mj0iMTAyNyIgeTE9IjQ3Ni40ODQ0IiB5Mj0iNDY2LjQ4NDQiLz48bGluZSBzdHlsZT0ic3Ryb2tlOiMxODE4MTg7c3Ryb2tlLXdpZHRoOjAuNTsiIHgxPSI5MDMiIHgyPSIxMDE3IiB5MT0iNDc2LjQ4NDQiIHkyPSI0NzYuNDg0NCIvPjxsaW5lIHN0eWxlPSJzdHJva2U6IzE4MTgxODtzdHJva2Utd2lkdGg6MC41OyIgeDE9IjEwMTciIHgyPSIxMDE3IiB5MT0iNDc2LjQ4NDQiIHkyPSI1NTcuNDM3NSIvPjx0ZXh0IGZpbGw9IiMwMDAwMDAiIGZvbnQtZmFtaWx5PSJzYW5zLXNlcmlmIiBmb250LXNpemU9IjE0IiBsZW5ndGhBZGp1c3Q9InNwYWNpbmciIHRleHRMZW5ndGg9IjcwIiB4PSI5MTgiIHk9IjQ5OS43MTg4Ij5wcm9w5pyN5Yqh56uvPC90ZXh0PjxsaW5lIHN0eWxlPSJzdHJva2U6IzE4MTgxODtzdHJva2Utd2lkdGg6MS4wOyIgeDE9IjkwMyIgeDI9IjEwMTciIHkxPSI1MDEuNDY4OCIgeTI9IjUwMS40Njg4Ii8+PGxpbmUgc3R5bGU9InN0cm9rZTojMTgxODE4O3N0cm9rZS13aWR0aDoxLjA7IiB4MT0iMTAxNyIgeDI9IjEwMjciIHkxPSI1MDEuNDY4OCIgeTI9IjQ5MS40Njg4Ii8+PHRleHQgZmlsbD0iIzAwMDAwMCIgZm9udC1mYW1pbHk9InNhbnMtc2VyaWYiIGZvbnQtc2l6ZT0iMTQiIGxlbmd0aEFkanVzdD0ic3BhY2luZyIgdGV4dExlbmd0aD0iODQiIHg9IjkxOCIgeT0iNTE4LjcwMzEiPjEwLjE2OS40My4xNDwvdGV4dD48bGluZSBzdHlsZT0ic3Ryb2tlOiMxODE4MTg7c3Ryb2tlLXdpZHRoOjEuMDsiIHgxPSI5MDMiIHgyPSIxMDE3IiB5MT0iNTI0LjQ1MzEiIHkyPSI1MjQuNDUzMSIvPjxsaW5lIHN0eWxlPSJzdHJva2U6IzE4MTgxODtzdHJva2Utd2lkdGg6MS4wOyIgeDE9IjEwMTciIHgyPSIxMDI3IiB5MT0iNTI0LjQ1MzEiIHkyPSI1MTQuNDUzMSIvPjx0ZXh0IGZpbGw9IiMwMDAwMDAiIGZvbnQtZmFtaWx5PSJzYW5zLXNlcmlmIiBmb250LXNpemU9IjE0IiBsZW5ndGhBZGp1c3Q9InNwYWNpbmciIHRleHRMZW5ndGg9IjI4IiB4PSI5MTgiIHk9IjU0MS42ODc1Ij44ODg4PC90ZXh0PjwvZz48IS0tTUQ1PVs1ZjJmOWRiYmVlNjkyMDU4ZDYwNDg5MTgwNjkzZjc3NF0KZW50aXR5IHVzZXJzLS0+PGcgaWQ9ImVsZW1fdXNlcnMiPjxlbGxpcHNlIGN4PSIxMTU0IiBjeT0iNDkuOTg0NCIgZmlsbD0iI0ZGQzBDQiIgcng9IjgiIHJ5PSI4IiBzdHlsZT0ic3Ryb2tlOiNGRjAwMDA7c3Ryb2tlLXdpZHRoOjIuMDsiLz48cGF0aCBkPSJNMTE1NCw1Ny45ODQ0IEwxMTU0LDg0Ljk4NDQgTTExNDEsNjUuOTg0NCBMMTE2Nyw2NS45ODQ0IE0xMTU0LDg0Ljk4NDQgTDExNDEsOTkuOTg0NCBNMTE1NCw4NC45ODQ0IEwxMTY3LDk5Ljk4NDQgIiBmaWxsPSJub25lIiBzdHlsZT0ic3Ryb2tlOiNGRjAwMDA7c3Ryb2tlLXdpZHRoOjIuMDsiLz48dGV4dCBmaWxsPSIjRkYwMDAwIiBmb250LWZhbWlseT0ic2Fucy1zZXJpZiIgZm9udC1zaXplPSIxNCIgbGVuZ3RoQWRqdXN0PSJzcGFjaW5nIiB0ZXh0TGVuZ3RoPSI1NiIgeD0iMTEyNiIgeT0iMTE2LjIxODgiPuWGhee9keeUqOaItzwvdGV4dD48L2c+PCEtLU1ENT1bYjYxZGNmNmNlNDU5YmI3YjMyZWM3MGMzOGY3NzAyYTVdCmxpbmsgcHJvcDNMb2NhbCB0byBwcm9wM1NlcnZlci0tPjxnIGlkPSJsaW5rX3Byb3AzTG9jYWxfcHJvcDNTZXJ2ZXIiPjxwYXRoIGNvZGVMaW5lPSI3NCIgZD0iTTIwNC42Myw1MTEuOTg0NCBDMjIxLjkzLDUxMS45ODQ0IDIzOS45OSw1MTEuOTg0NCAyNTYuNjksNTExLjk4NDQgIiBmaWxsPSJub25lIiBpZD0icHJvcDNMb2NhbC1wcm9wM1NlcnZlciIgc3R5bGU9InN0cm9rZTojMTgxODE4O3N0cm9rZS13aWR0aDoxLjA7Ii8+PHBvbHlnb24gZmlsbD0iIzE4MTgxOCIgcG9pbnRzPSIyNjEuODIsNTExLjk4NDQsMjUyLjgyLDUwNy45ODQ0LDI1Ni44Miw1MTEuOTg0NCwyNTIuODIsNTE1Ljk4NDQsMjYxLjgyLDUxMS45ODQ0IiBzdHlsZT0ic3Ryb2tlOiMxODE4MTg7c3Ryb2tlLXdpZHRoOjEuMDsiLz48cG9seWdvbiBmaWxsPSIjMTgxODE4IiBwb2ludHM9IjE5OS4yOCw1MTEuOTg0NCwyMDguMjgsNTE1Ljk4NDQsMjA0LjI4LDUxMS45ODQ0LDIwOC4yOCw1MDcuOTg0NCwxOTkuMjgsNTExLjk4NDQiIHN0eWxlPSJzdHJva2U6IzE4MTgxODtzdHJva2Utd2lkdGg6MS4wOyIvPjx0ZXh0IGZpbGw9IiMwMDAwMDAiIGZvbnQtZmFtaWx5PSJzYW5zLXNlcmlmIiBmb250LXNpemU9IjEzIiBsZW5ndGhBZGp1c3Q9InNwYWNpbmciIHRleHRMZW5ndGg9IjI2IiB4PSIyMTcuNSIgeT0iNTA3LjI3MzQiPuWunuaXtjwvdGV4dD48L2c+PCEtLU1ENT1bMWE5MGNjNzZhZjFmYTlmZTE2NmQzYWU2MTEwMTM2OTVdCmxpbmsgdXNlcnMgdG8gamJvc3MzLS0+PGcgaWQ9ImxpbmtfdXNlcnNfamJvc3MzIj48cGF0aCBjb2RlTGluZT0iNzgiIGQ9Ik0xMTI1LjYzLDg5Ljc0NDQgQzEwMzEuMjMsMTIyLjIxNDQgNzI1LjcyLDIyNy4zMTQ0IDU4NS4wOCwyNzUuNjg0NCAiIGZpbGw9Im5vbmUiIGlkPSJ1c2Vycy10by1qYm9zczMiIHN0eWxlPSJzdHJva2U6I0ZGMDAwMDtzdHJva2Utd2lkdGg6MS4wOyIvPjxwb2x5Z29uIGZpbGw9IiNGRjAwMDAiIHBvaW50cz0iNTgwLjE1LDI3Ny4zODQ0LDU4OS45NTk3LDI3OC4yNjIxLDU4NC44ODE5LDI3NS43NjksNTg3LjM3NSwyNzAuNjkxMiw1ODAuMTUsMjc3LjM4NDQiIHN0eWxlPSJzdHJva2U6I0ZGMDAwMDtzdHJva2Utd2lkdGg6MS4wOyIvPjwvZz48IS0tTUQ1PVs5MmY4ZTYyMWIzNWUwOGViNjcxZjZjMjJiMmQxMjZlY10KbGluayBqYm9zczMgdG8gb3JhY2xlMy0tPjxnIGlkPSJsaW5rX2pib3NzM19vcmFjbGUzIj48cGF0aCBjb2RlTGluZT0iODEiIGQ9Ik01MTMsMzQ3LjIxNDQgQzUxMywzNzguNTY0NCA1MTMsNDIwLjcwNDQgNTEzLDQ1NC4zOTQ0ICIgZmlsbD0ibm9uZSIgaWQ9Impib3NzMy10by1vcmFjbGUzIiBzdHlsZT0ic3Ryb2tlOiM4MDgwODA7c3Ryb2tlLXdpZHRoOjEuMDsiLz48cG9seWdvbiBmaWxsPSIjODA4MDgwIiBwb2ludHM9IjUxMyw0NTkuNzI0NCw1MTcsNDUwLjcyNDQsNTEzLDQ1NC43MjQ0LDUwOSw0NTAuNzI0NCw1MTMsNDU5LjcyNDQiIHN0eWxlPSJzdHJva2U6IzgwODA4MDtzdHJva2Utd2lkdGg6MS4wOyIvPjwvZz48IS0tTUQ1PVs0OTNlOWYzZjgwNmY1NzFjNTFjYmViMWRiODA2YzFlN10KbGluayBqYm9zczMgdG8gcHJvcDNMb2NhbC0tPjxnIGlkPSJsaW5rX2pib3NzM19wcm9wM0xvY2FsIj48cGF0aCBjb2RlTGluZT0iODMiIGQ9Ik00NDUuNzIsMzE5Ljg1NDQgQzM4OS41NCwzMzYuMDk0NCAzMDguNjYsMzYzLjYyNDQgMjQ1LDQwMS45ODQ0IEMyMTcuNCw0MTguNjE0NCAxOTAuMzEsNDQxLjkwNDQgMTY4LjY5LDQ2Mi42OTQ0ICIgZmlsbD0ibm9uZSIgaWQ9Impib3NzMy10by1wcm9wM0xvY2FsIiBzdHlsZT0ic3Ryb2tlOiNGRjAwMDA7c3Ryb2tlLXdpZHRoOjEuMDsiLz48cG9seWdvbiBmaWxsPSIjRkYwMDAwIiBwb2ludHM9IjE2NC45OSw0NjYuMjc0NCwxNzQuMjM4NCw0NjIuODg4MSwxNjguNTgyMyw0NjIuNzk2NiwxNjguNjczOSw0NTcuMTQwNCwxNjQuOTksNDY2LjI3NDQiIHN0eWxlPSJzdHJva2U6I0ZGMDAwMDtzdHJva2Utd2lkdGg6MS4wOyIvPjwvZz48IS0tTUQ1PVs5N2EyY2JhOWE2MGI0MDQ0MjM3Mjc4NDYwNTA4Njc2M10KbGluayBwcm9wTG9jYWwgdG8gcHJvcFNlcnZlci0tPjxnIGlkPSJsaW5rX3Byb3BMb2NhbF9wcm9wU2VydmVyIj48cGF0aCBjb2RlTGluZT0iMTQwIiBkPSJNODQ1LjYzLDUxMS45ODQ0IEM4NjIuOTMsNTExLjk4NDQgODgwLjk5LDUxMS45ODQ0IDg5Ny42OSw1MTEuOTg0NCAiIGZpbGw9Im5vbmUiIGlkPSJwcm9wTG9jYWwtcHJvcFNlcnZlciIgc3R5bGU9InN0cm9rZTojMTgxODE4O3N0cm9rZS13aWR0aDoxLjA7Ii8+PHBvbHlnb24gZmlsbD0iIzE4MTgxOCIgcG9pbnRzPSI5MDIuODIsNTExLjk4NDQsODkzLjgyLDUwNy45ODQ0LDg5Ny44Miw1MTEuOTg0NCw4OTMuODIsNTE1Ljk4NDQsOTAyLjgyLDUxMS45ODQ0IiBzdHlsZT0ic3Ryb2tlOiMxODE4MTg7c3Ryb2tlLXdpZHRoOjEuMDsiLz48cG9seWdvbiBmaWxsPSIjMTgxODE4IiBwb2ludHM9Ijg0MC4yOCw1MTEuOTg0NCw4NDkuMjgsNTE1Ljk4NDQsODQ1LjI4LDUxMS45ODQ0LDg0OS4yOCw1MDcuOTg0NCw4NDAuMjgsNTExLjk4NDQiIHN0eWxlPSJzdHJva2U6IzE4MTgxODtzdHJva2Utd2lkdGg6MS4wOyIvPjx0ZXh0IGZpbGw9IiMwMDAwMDAiIGZvbnQtZmFtaWx5PSJzYW5zLXNlcmlmIiBmb250LXNpemU9IjEzIiBsZW5ndGhBZGp1c3Q9InNwYWNpbmciIHRleHRMZW5ndGg9IjI2IiB4PSI4NTguNSIgeT0iNTA3LjI3MzQiPuWunuaXtjwvdGV4dD48L2c+PCEtLU1ENT1bODJjOGJkNjA5MzQwNWMyZTM1Mzg1NmJmODNiNzBjNGRdCmxpbmsgb3JhY2xlMSB0byBvcmFjbGUyLS0+PGcgaWQ9Imxpbmtfb3JhY2xlMV9vcmFjbGUyIj48cGF0aCBjb2RlTGluZT0iMTQ1IiBkPSJNMTIyNS4xOSw1MTEuOTg0NCBDMTI1MS41NCw1MTEuOTg0NCAxMjgxLjUxLDUxMS45ODQ0IDEzMDguMzMsNTExLjk4NDQgIiBmaWxsPSJub25lIiBpZD0ib3JhY2xlMS10by1vcmFjbGUyIiBzdHlsZT0ic3Ryb2tlOiMxODE4MTg7c3Ryb2tlLXdpZHRoOjEuMDsiLz48cG9seWdvbiBmaWxsPSIjMTgxODE4IiBwb2ludHM9IjEzMTMuNjQsNTExLjk4NDQsMTMwNC42NCw1MDcuOTg0NCwxMzA4LjY0LDUxMS45ODQ0LDEzMDQuNjQsNTE1Ljk4NDQsMTMxMy42NCw1MTEuOTg0NCIgc3R5bGU9InN0cm9rZTojMTgxODE4O3N0cm9rZS13aWR0aDoxLjA7Ii8+PHRleHQgZmlsbD0iIzAwMDAwMCIgZm9udC1mYW1pbHk9InNhbnMtc2VyaWYiIGZvbnQtc2l6ZT0iMTMiIGxlbmd0aEFkanVzdD0ic3BhY2luZyIgdGV4dExlbmd0aD0iNTIiIHg9IjEyNDMuNSIgeT0iNTA3LjI3MzQiPuWunuaXtuWQjOatpTwvdGV4dD48L2c+PCEtLU1ENT1bYTAzNDZjNzhiMzA2NGY2YWIxODk5YWRiZjM5ODJkZTRdCmxpbmsgb3JhY2xlMSB0byBvcmFjbGUzLS0+PGcgaWQ9Imxpbmtfb3JhY2xlMV9vcmFjbGUzIj48cGF0aCBjb2RlTGluZT0iMTQ3IiBkPSJNMTExNi41Miw0NTkuODc0NCBDMTA5Ny4zMyw0MzcuNjQ0NCAxMDcxLjkxLDQxNC4wNzQ0IDEwNDMsNDAxLjk4NDQgQzk2Ni45NCwzNzAuMTc0NCA3NTAuNjQsMzc3LjI0NDQgNjcyLDQwMS45ODQ0IEM2MzYuNiw0MTMuMTI0NCA2MDIuMTIsNDM1LjE1NDQgNTc0LjM3LDQ1Ni41OTQ0ICIgZmlsbD0ibm9uZSIgaWQ9Im9yYWNsZTEtdG8tb3JhY2xlMyIgc3R5bGU9InN0cm9rZTojMTgxODE4O3N0cm9rZS13aWR0aDoxLjA7Ii8+PHBvbHlnb24gZmlsbD0iIzE4MTgxOCIgcG9pbnRzPSI1NzAuMzIsNDU5Ljc1NDQsNTc5Ljg3NCw0NTcuMzYyMyw1NzQuMjU5LDQ1Ni42NzQ4LDU3NC45NDY2LDQ1MS4wNTk4LDU3MC4zMiw0NTkuNzU0NCIgc3R5bGU9InN0cm9rZTojMTgxODE4O3N0cm9rZS13aWR0aDoxLjA7Ii8+PHRleHQgZmlsbD0iIzAwMDAwMCIgZm9udC1mYW1pbHk9InNhbnMtc2VyaWYiIGZvbnQtc2l6ZT0iMTMiIGxlbmd0aEFkanVzdD0ic3BhY2luZyIgdGV4dExlbmd0aD0iNTIiIHg9IjkwMSIgeT0iMzkyLjI3MzQiPuWunuaXtuWQjOatpTwvdGV4dD48L2c+PCEtLU1ENT1bZGVjNTEzMzQ3Y2U3YjNhN2VhMDZiZjAxMDI2NTVlYTldCmxpbmsgdXNlcnMgdG8gamJvc3MxLS0+PGcgaWQ9ImxpbmtfdXNlcnNfamJvc3MxIj48cGF0aCBjb2RlTGluZT0iMTQ5IiBkPSJNMTE1NCwxMTguMTQ0NCBDMTE1NCwxNTQuODI0NCAxMTU0LDIxMC40ODQ0IDExNTQsMjUwLjY1NDQgIiBmaWxsPSJub25lIiBpZD0idXNlcnMtdG8tamJvc3MxIiBzdHlsZT0ic3Ryb2tlOiNGRjAwMDA7c3Ryb2tlLXdpZHRoOjEuMDsiLz48cG9seWdvbiBmaWxsPSIjRkYwMDAwIiBwb2ludHM9IjExNTQsMjU1Ljk2NDQsMTE1OCwyNDYuOTY0NCwxMTU0LDI1MC45NjQ0LDExNTAsMjQ2Ljk2NDQsMTE1NCwyNTUuOTY0NCIgc3R5bGU9InN0cm9rZTojRkYwMDAwO3N0cm9rZS13aWR0aDoxLjA7Ii8+PC9nPjwhLS1NRDU9Wzg2MDRkYjJkODA1YzEyZWRiMGFkNzQyZGM3NWQ5ZGI3XQpsaW5rIHVzZXJzIHRvIGpib3NzMi0tPjxnIGlkPSJsaW5rX3VzZXJzX2pib3NzMiI+PHBhdGggY29kZUxpbmU9IjE1MCIgZD0iTTExODIuMTYsMTA0LjQwNDQgQzExOTcuODYsMTE4LjgwNDQgMTIxNy4xNywxMzcuOTA0NCAxMjMyLDE1Ni45ODQ0IEMxMjU0Ljg3LDE4Ni40MDQ0IDEyNzYuMDMsMjIyLjY0NDQgMTI5MS40LDI1MS4zNDQ0ICIgZmlsbD0ibm9uZSIgaWQ9InVzZXJzLXRvLWpib3NzMiIgc3R5bGU9InN0cm9rZTojRkYwMDAwO3N0cm9rZS13aWR0aDoxLjA7Ii8+PHBvbHlnb24gZmlsbD0iI0ZGMDAwMCIgcG9pbnRzPSIxMjkzLjgxLDI1NS44ODQ0LDEyOTMuMDk5MiwyNDYuMDYxMiwxMjkxLjQ1NDgsMjUxLjQ3MzgsMTI4Ni4wNDIyLDI0OS44Mjk1LDEyOTMuODEsMjU1Ljg4NDQiIHN0eWxlPSJzdHJva2U6I0ZGMDAwMDtzdHJva2Utd2lkdGg6MS4wOyIvPjwvZz48IS0tTUQ1PVtjMGM0YjhkODQ4NjQyMmI5NGY1ZGNiZmZlOTdjODJmZF0KbGluayBqYm9zczEgdG8gb3JhY2xlMS0tPjxnIGlkPSJsaW5rX2pib3NzMV9vcmFjbGUxIj48cGF0aCBjb2RlTGluZT0iMTUyIiBkPSJNMTE1NCwzNDcuMjE0NCBDMTE1NCwzNzguNTY0NCAxMTU0LDQyMC43MDQ0IDExNTQsNDU0LjM5NDQgIiBmaWxsPSJub25lIiBpZD0iamJvc3MxLXRvLW9yYWNsZTEiIHN0eWxlPSJzdHJva2U6IzgwODA4MDtzdHJva2Utd2lkdGg6MS4wOyIvPjxwb2x5Z29uIGZpbGw9IiM4MDgwODAiIHBvaW50cz0iMTE1NCw0NTkuNzI0NCwxMTU4LDQ1MC43MjQ0LDExNTQsNDU0LjcyNDQsMTE1MCw0NTAuNzI0NCwxMTU0LDQ1OS43MjQ0IiBzdHlsZT0ic3Ryb2tlOiM4MDgwODA7c3Ryb2tlLXdpZHRoOjEuMDsiLz48L2c+PCEtLU1ENT1bN2Y2NDUxNDdmYjFkYTNkNmQ3NWNhOGI3YzY1NjNmZThdCmxpbmsgamJvc3MxIHRvIG9yYWNsZTItLT48ZyBpZD0ibGlua19qYm9zczFfb3JhY2xlMiI+PHBhdGggY29kZUxpbmU9IjE1MyIgZD0iTTEyMDMuNTYsMzQ3LjIxNDQgQzEyMzguODYsMzc5LjA3NDQgMTI4Ni41Miw0MjIuMDk0NCAxMzI0LjE0LDQ1Ni4wNTQ0ICIgZmlsbD0ibm9uZSIgaWQ9Impib3NzMS10by1vcmFjbGUyIiBzdHlsZT0ic3Ryb2tlOiM4MDgwODA7c3Ryb2tlLXdpZHRoOjEuMDsiLz48cG9seWdvbiBmaWxsPSIjODA4MDgwIiBwb2ludHM9IjEzMjguMjEsNDU5LjcyNDQsMTMyNC4yMTUzLDQ1MC43MjIsMTMyNC41MDA2LDQ1Ni4zNzE3LDEzMTguODUxLDQ1Ni42NTcsMTMyOC4yMSw0NTkuNzI0NCIgc3R5bGU9InN0cm9rZTojODA4MDgwO3N0cm9rZS13aWR0aDoxLjA7Ii8+PC9nPjwhLS1NRDU9W2U5ZDQzM2NlNWI2YjU4NjVkNGU0NzMzOTVhYjI2ZTAzXQpsaW5rIGpib3NzMiB0byBvcmFjbGUxLS0+PGcgaWQ9ImxpbmtfamJvc3MyX29yYWNsZTEiPjxwYXRoIGNvZGVMaW5lPSIxNTUiIGQ9Ik0xMjgxLjI1LDM0Ny4yMTQ0IEMxMjU2LjU5LDM3OC45NDQ0IDEyMjMuMzMsNDIxLjc1NDQgMTE5Nyw0NTUuNjM0NCAiIGZpbGw9Im5vbmUiIGlkPSJqYm9zczItdG8tb3JhY2xlMSIgc3R5bGU9InN0cm9rZTojODA4MDgwO3N0cm9rZS13aWR0aDoxLjA7Ii8+PHBvbHlnb24gZmlsbD0iIzgwODA4MCIgcG9pbnRzPSIxMTkzLjgzLDQ1OS43MjQ0LDEyMDIuNTA4Miw0NTUuMDY3MywxMTk2Ljg5NTgsNDU1Ljc3NDUsMTE5Ni4xODg1LDQ1MC4xNjIxLDExOTMuODMsNDU5LjcyNDQiIHN0eWxlPSJzdHJva2U6IzgwODA4MDtzdHJva2Utd2lkdGg6MS4wOyIvPjwvZz48IS0tTUQ1PVs0NmRmMTMwMjk0YjcwNjY2ZGJhMmFlNDFjNWU3N2FjMV0KbGluayBqYm9zczIgdG8gb3JhY2xlMi0tPjxnIGlkPSJsaW5rX2pib3NzMl9vcmFjbGUyIj48cGF0aCBjb2RlTGluZT0iMTU2IiBkPSJNMTMzMC44LDM0Ny4yMTQ0IEMxMzQxLjIyLDM3OC42OTQ0IDEzNTUuMjQsNDIxLjA1NDQgMTM2Ni40MSw0NTQuODE0NCAiIGZpbGw9Im5vbmUiIGlkPSJqYm9zczItdG8tb3JhY2xlMiIgc3R5bGU9InN0cm9rZTojODA4MDgwO3N0cm9rZS13aWR0aDoxLjA7Ii8+PHBvbHlnb24gZmlsbD0iIzgwODA4MCIgcG9pbnRzPSIxMzY4LjA0LDQ1OS43MjQ0LDEzNjkuMDE1Miw0NDkuOTIzOSwxMzY2LjQ3MTcsNDU0Ljk3NjcsMTM2MS40MTg5LDQ1Mi40MzMyLDEzNjguMDQsNDU5LjcyNDQiIHN0eWxlPSJzdHJva2U6IzgwODA4MDtzdHJva2Utd2lkdGg6MS4wOyIvPjwvZz48IS0tTUQ1PVthYTU0ZTBkYWJkY2NmMDEyZTdkM2ZiOTc5Yzc3ODMyYV0KbGluayBqYm9zczEgdG8gcHJvcExvY2FsLS0+PGcgaWQ9ImxpbmtfamJvc3MxX3Byb3BMb2NhbCI+PHBhdGggY29kZUxpbmU9IjE1OCIgZD0iTTEwOTMuNzUsMzExLjAxNDQgQzEwMzguMjIsMzIwLjg5NDQgOTU1LjExLDM0MC45NDQ0IDg5MiwzNzguOTg0NCBDODU2LjQzLDQwMC40MjQ0IDgyMy45Niw0MzQuMTY0NCA4MDAuNjIsNDYyLjE2NDQgIiBmaWxsPSJub25lIiBpZD0iamJvc3MxLXRvLXByb3BMb2NhbCIgc3R5bGU9InN0cm9rZTojRkYwMDAwO3N0cm9rZS13aWR0aDoxLjA7Ii8+PHBvbHlnb24gZmlsbD0iI0ZGMDAwMCIgcG9pbnRzPSI3OTcuMjQsNDY2LjI1NDQsODA2LjA1NTQsNDYxLjg2MjQsODAwLjQyNCw0NjIuMzk5Myw3OTkuODg3Miw0NTYuNzY3OSw3OTcuMjQsNDY2LjI1NDQiIHN0eWxlPSJzdHJva2U6I0ZGMDAwMDtzdHJva2Utd2lkdGg6MS4wOyIvPjwvZz48IS0tTUQ1PVtmNjdkZGMwYjE5Nzc2MWI3ZWFiMDc4OTJlNTA2NjU5YV0KbGluayBqYm9zczIgdG8gcHJvcExvY2FsLS0+PGcgaWQ9ImxpbmtfamJvc3MyX3Byb3BMb2NhbCI+PHBhdGggY29kZUxpbmU9IjE1OSIgZD0iTTEyNzEuMjUsMzQ3LjA0NDQgQzEyNTkuMzcsMzU2LjQ4NDQgMTI0NS45NCwzNjUuMzA0NCAxMjMyLDM3MC45ODQ0IEMxMjIzLjA2LDM3NC42MjQ0IDg5NC44NSwzOTguMTQ0NCA4ODYsNDAxLjk4NDQgQzg1NC45Niw0MTUuNDQ0NCA4MjYuNCw0MzkuOTc0NCA4MDQuNzIsNDYyLjM2NDQgIiBmaWxsPSJub25lIiBpZD0iamJvc3MyLXRvLXByb3BMb2NhbCIgc3R5bGU9InN0cm9rZTojRkYwMDAwO3N0cm9rZS13aWR0aDoxLjA7Ii8+PHBvbHlnb24gZmlsbD0iI0ZGMDAwMCIgcG9pbnRzPSI4MDEuMDMsNDY2LjIyNDQsODEwLjE0MTYsNDYyLjQ4NTUsODA0LjQ4NjEsNDYyLjYxMTIsODA0LjM2MDQsNDU2Ljk1NTcsODAxLjAzLDQ2Ni4yMjQ0IiBzdHlsZT0ic3Ryb2tlOiNGRjAwMDA7c3Ryb2tlLXdpZHRoOjEuMDsiLz48L2c+PCEtLU1ENT1bZjgxODE0MmZhNGI1YTc4OTE0OGUzNjkxNWM3YWExODhdCmxpbmsgamJvc3MxIHRvIHR5emZKYm9zcy0tPjxnIGlkPSJsaW5rX2pib3NzMV90eXpmSmJvc3MiPjxwYXRoIGNvZGVMaW5lPSIxNjEiIGQ9Ik0xMTk1LjY5LDM0Ny4wMzQ0IEMxMjA2LjYzLDM1Ni4zNTQ0IDEyMTkuMDMsMzY1LjEyNDQgMTIzMiwzNzAuOTg0NCBDMTI4MSwzOTMuMTM0NCAxNDIyLjcxLDM4MC40ODQ0IDE0NzIsNDAxLjk4NDQgQzE1MDQuMzEsNDE2LjA3NDQgMTUzNC45MSw0NDAuNjU0NCAxNTU4LjQxLDQ2Mi45MDQ0ICIgZmlsbD0ibm9uZSIgaWQ9Impib3NzMS10by10eXpmSmJvc3MiIHN0eWxlPSJzdHJva2U6I0ZGMDAwMDtzdHJva2Utd2lkdGg6MS4wOyIvPjxwb2x5Z29uIGZpbGw9IiNGRjAwMDAiIHBvaW50cz0iMTU2Mi4xMSw0NjYuNDU0NCwxNTU4LjM3MTEsNDU3LjM0MjgsMTU1OC40OTY4LDQ2Mi45OTgzLDE1NTIuODQxMyw0NjMuMTIzOSwxNTYyLjExLDQ2Ni40NTQ0IiBzdHlsZT0ic3Ryb2tlOiNGRjAwMDA7c3Ryb2tlLXdpZHRoOjEuMDsiLz48L2c+PCEtLU1ENT1bNTFmZWJjNTdhYmMxNjZhYWU5ZTQzMjFhZjcxMTAzYzldCmxpbmsgamJvc3MyIHRvIHR5emZKYm9zcy0tPjxnIGlkPSJsaW5rX2pib3NzMl90eXpmSmJvc3MiPjxwYXRoIGNvZGVMaW5lPSIxNjIiIGQ9Ik0xMzgzLjE3LDMxOS44MDQ0IEMxNDIxLjU0LDMzMS45ODQ0IDE0NjkuMDIsMzUxLjE1NDQgMTUwNSwzNzguOTg0NCBDMTUzMy45Myw0MDEuMzY0NCAxNTU4LjQ1LDQzNC40MTQ0IDE1NzUuNzMsNDYxLjg0NDQgIiBmaWxsPSJub25lIiBpZD0iamJvc3MyLXRvLXR5emZKYm9zcyIgc3R5bGU9InN0cm9rZTojRkYwMDAwO3N0cm9rZS13aWR0aDoxLjA7Ii8+PHBvbHlnb24gZmlsbD0iI0ZGMDAwMCIgcG9pbnRzPSIxNTc4LjQ0LDQ2Ni4xOTQ0LDE1NzcuMDc2OCw0NTYuNDQwMywxNTc1Ljc5NjQsNDYxLjk1MDQsMTU3MC4yODY0LDQ2MC42NywxNTc4LjQ0LDQ2Ni4xOTQ0IiBzdHlsZT0ic3Ryb2tlOiNGRjAwMDA7c3Ryb2tlLXdpZHRoOjEuMDsiLz48L2c+PCEtLU1ENT1bY2RjNTQzNjE5N2Q2ZmJjNWY1OGU1ZWEyNTFlNWFmYjRdCkBzdGFydHVtbA0KIWluY2x1ZGUgPGxvZ29zL29yYWNsZT4NCnRpdGxlIOazleS6uue7k+eul+eJqeeQhuWbvg0KDQonIOiDjOaZr+minOiJsg0Kc2tpbnBhcmFtIGJhY2tncm91bmRDb2xvciAjRUVFQkRDDQonIOaJi+eUuw0KJyBza2lucGFyYW0gaGFuZHdyaXR0ZW4gdHJ1ZQ0KDQpza2lucGFyYW0gc2VxdWVuY2Ugew0KJyDnrq3lpLQNCicgQXJyb3dDb2xvciBEZWVwU2t5Qmx1ZQ0KJyDnrq3lpLTpopzoibINCicgQWN0b3JCb3JkZXJDb2xvciBEZWVwU2t5Qmx1ZQ0KDQpMaWZlTGluZUJvcmRlckNvbG9yIGJsdWUNCkxpZmVMaW5lQmFja2dyb3VuZENvbG9yICNBOURDREYNClBhcnRpY2lwYW50Qm9yZGVyQ29sb3IgRGVlcFNreUJsdWUNClBhcnRpY2lwYW50QmFja2dyb3VuZENvbG9yIERvZGdlckJsdWUNClBhcnRpY2lwYW50Rm9udE5hbWUgSW1wYWN0DQpQYXJ0aWNpcGFudEZvbnRTaXplIDE3DQpQYXJ0aWNpcGFudEZvbnRDb2xvciAjQTlEQ0RGDQpBY3RvckJhY2tncm91bmRDb2xvciBhcXVhDQoNCn0NCmFjdG9yIHVzZXJzICAjcGluaztsaW5lOnJlZDtsaW5lLmJvbGQ7dGV4dDpyZWRbDQogICAg5YaF572R55So5oi3DQpdDQoNCnJlY3RhbmdsZSDnu5/kuIDmlK/ku5h7DQogICAgbm9kZSB0eXpmSmJvc3NbDQogICAgICAgICAgICBKYm9zcyjkuI3lkK/liqgpDQogICAgICAgICAgICAtIC0gLSAtDQogICAgICAgICAgICAxMC4xNjkuOS4xNg0KICAgICAgICAgICAgLSAtIC0gLQ0KICAgICAgICAgICAgODA4MA0KICAgIF0NCn0NCnJlY3RhbmdsZSDnp5HmioDnvZHmnLrmiL97DQogICAgcmVjdGFuZ2xlIOenkeaKgOe9keacjeWKoXsNCiAgICAgICAgbm9kZSBqYm9zczNbDQogICAgICAgICAgICBKYm9zcyjkuI3lkK/liqgpDQogICAgICAgICAgICAtIC0gLSAtDQogICAgICAgICAgICAxMC4xNzAuNi4xMQ0KICAgICAgICAgICAgLSAtIC0gLQ0KICAgICAgICAgICAgODA4MA0KICAgICAgICBdDQogICAgfQ0KICAgIHJlY3RhbmdsZSDnp5HmioDnvZHmlbDmja7lupN7DQogICAgICAgIG5vZGUgb3JhY2xlM1sNCiAgICAgICAgICAgIG9yYWNsZSjkuLspDQogICAgICAgICAgICA8JG9yYWNsZT4NCiAgICAgICAgICAgIC0gLSAtIC0NCiAgICAgICAgICAgIDEwLjE3MC41LjEwMA0KICAgICAgICAgICAgLSAtIC0gLQ0KICAgICAgICAgICAgMTUyMQ0KICAgICAgICBdDQogICAgfQ0KDQogICAgcmVjdGFuZ2xlIOenkeaKgOe9keWkluWbtHsNCiAgICAgICAgbm9kZSBwcm9wM0xvY2FsWw0KICAgICAgICAgICAgcHJvcOmAmueUqOS6pOaYk+aOpeWPow0KICAgICAgICAgICAgLSAtIC0gLQ0KICAgICAgICAgICAgMTAuMTcwLjYuMTENCiAgICAgICAgICAgIC0gLSAtIC0NCg0KICAgICAgICBdDQogICAgICAgIG5vZGUgcHJvcDNTZXJ2ZXJbDQogICAgICAgICAgICBwcm9wM+acjeWKoeerrw0KICAgICAgICAgICAgLSAtIC0gLQ0KICAgICAgICAgICAgMTAuMTcwLjQzLjE0DQogICAgICAgICAgICAtIC0gLSAtDQogICAgICAgICAgICA4ODg4DQogICAgICAgIF0NCiAgICAgICAgcHJvcDNMb2NhbCA8LT4gcHJvcDNTZXJ2ZXI65a6e5pe2DQogICAgfQ0KICAgDQoNCiAgICB1c2VycyA9WyNyZWRdPT4gamJvc3MzDQogICAgDQoNCiAgICBqYm9zczMgPVsjZ3JheV09PiBvcmFjbGUzDQogICAgDQogICAgamJvc3MzID1bI3JlZF09PiBwcm9wM0xvY2FsDQoNCn0NCg0KcmVjdGFuZ2xlIOWugeahpei3r+acuuaIv3sNCiAgICByZWN0YW5nbGUg5pyN5Yqhew0KICAgICAgICBub2RlIGpib3NzMVsNCiAgICAgICAgICAgIEpib3NzKOWQr+WKqCkNCiAgICAgICAgICAgIC0gLSAtIC0NCiAgICAgICAgICAgIDEwLjE2OS42LjEwDQogICAgICAgICAgICAtIC0gLSAtDQogICAgICAgICAgICA4MDgwDQogICAgICAgIF0NCg0KICAgICAgICBub2RlIGpib3NzMlsNCiAgICAgICAgICAgIEpib3NzKOS4jeWQr+WKqCkNCiAgICAgICAgICAgIC0gLSAtIC0NCiAgICAgICAgICAgIDEwLjE2OS42LjExDQogICAgICAgICAgICAtIC0gLSAtDQogICAgICAgICAgICA4MDgwDQogICAgICAgIF0NCiAgICB9DQogICAgcmVjdGFuZ2xlIOaVsOaNruW6k3sNCiAgICAgICAgbm9kZSBvcmFjbGUxWw0KICAgICAgICAgICAgb3JhY2xlKOS4uykNCiAgICAgICAgICAgIDwkb3JhY2xlPg0KICAgICAgICAgICAgLSAtIC0gLQ0KICAgICAgICAgICAgMTAuMTY5LjUuMTAwDQogICAgICAgICAgICAtIC0gLSAtDQogICAgICAgICAgICAxNTIxDQogICAgICAgIF0NCg0KICAgICAgICBub2RlIG9yYWNsZTJbDQogICAgICAgICAgICBvcmFjbGUo5aSHKQ0KICAgICAgICAgICAgPCRvcmFjbGU+DQogICAgICAgICAgICAtIC0gLSAtDQogICAgICAgICAgICAxMC4xNjkuNS4xMDENCiAgICAgICAgICAgIC0gLSAtIC0NCiAgICAgICAgICAgIDE1MjENCiAgICAgICAgXQ0KICAgIH0NCg0KICAgIHJlY3RhbmdsZSDlpJblm7R7DQogICAgICAgIG5vZGUgcHJvcExvY2FsWw0KICAgICAgICAgICAgcHJvcOmAmueUqOS6pOaYk+aOpeWPow0KICAgICAgICAgICAgLSAtIC0gLQ0KICAgICAgICAgICAgMTAuMTY5LjYuMTANCiAgICAgICAgICAgIC0gLSAtIC0NCg0KICAgICAgICBdDQogICAgICAgIG5vZGUgcHJvcFNlcnZlclsNCiAgICAgICAgICAgIHByb3DmnI3liqHnq68NCiAgICAgICAgICAgIC0gLSAtIC0NCiAgICAgICAgICAgIDEwLjE2OS40My4xNA0KICAgICAgICAgICAgLSAtIC0gLQ0KICAgICAgICAgICAgODg4OA0KICAgICAgICBdDQogICAgICAgIHByb3BMb2NhbCA8LT4gcHJvcFNlcnZlcjrlrp7ml7YNCiAgICB9DQoNCg0KICAgICcgT3JhY2xlDQogICAgb3JhY2xlMSAtPiBvcmFjbGUyIDog5a6e5pe25ZCM5q2lDQogICAgJyBPcmFjbGUNCiAgICBvcmFjbGUxIC0+IG9yYWNsZTMgOiDlrp7ml7blkIzmraUNCg0KICAgIHVzZXJzID1bI3JlZF09PiBqYm9zczENCiAgICB1c2VycyA9WyNyZWRdPT4gamJvc3MyDQoNCiAgICBqYm9zczEgPVsjZ3JheV09PiBvcmFjbGUxDQogICAgamJvc3MxID1bI2dyYXldPT4gb3JhY2xlMg0KDQogICAgamJvc3MyID1bI2dyYXldPT4gb3JhY2xlMQ0KICAgIGpib3NzMiA9WyNncmF5XT0+IG9yYWNsZTINCg0KICAgIGpib3NzMSA9WyNyZWRdPT4gcHJvcExvY2FsDQogICAgamJvc3MyID1bI3JlZF09PiBwcm9wTG9jYWwNCg0KICAgIGpib3NzMSA9WyNyZWRdPT4gdHl6Zkpib3NzDQogICAgamJvc3MyID1bI3JlZF09PiB0eXpmSmJvc3MNCn0NCkBlbmR1bWwNCgpAc3RhcnR1bWwNCnNwcml0ZSAkb3JhY2xlIFsxMDJ4MTMvMTZdIHsNCjAwMDA3QUFBQUFBQUFBQUEzMDAwMDBBQUFBQUFBQUFBQUFBMDAwMDAwMDAwMDBBQTQwMDAwMDAwMDAwMUFBQUFBQUFBQUFBMDZBQTAwMDAwMDAwMDAwMDAwMDRBQUFBQUFBQUFBNw0KMDA0QUFBQUFBQUFBQUFBQUFBMTAwMEFBQUFBQUFBQUFBQUFBMjAwMDAwMDAwQUFBQTAwMDAwMDAwMEFBQUFBQUFBQUFBQTAwNkFBMDAwMDAwMDAwMDAwMDFBQUFBQUFBQUFBQUEwDQowNkFBQTcyMTExMTExMTI4QUFBMTAwQUE4MTExMTExMTEzQUFBMDAwMDAwMDRBQUFBQTAwMDAwMDBBQUE5MzExMTExMTExMDA2QUEwMDAwMDAwMDAwMDAyQUFBODIxMTExMTExMDANCjBBQUEwMDAwMDAwMDAwMDAwQUFBMDBBQTgwMDAwMDAwMDAwQUEzMDAwMDAwQUFBMEFBNjAwMDAwQUFBMDAwMDAwMDAwMDAwMDZBQTAwMDAwMDAwMDAwMEFBQTAwMDAwMDAwMDAwMA0KQUFBMDAwMDAwMDAwMDAwMDAwQUEzMEFBODAwMDAwMDAwMDBBQTgwMDAwMEFBQTAwQUFBMDAwMDBBQTMwMDAwMDAwMDAwMDAwNkFBMDAwMDAwMDAwMDA2QUEwMDAwMDAwMDAwMDAwDQpBQTkwMDAwMDAwMDAwMDAwMDBBQTkwQUE4MDAwMDAwMDAwMEFBMzAwMDAzQUE0MDAwQUFBMDAwM0FBMDAwMDAwMDAwMDAwMDA2QUEwMDAwMDAwMDAwMEFBQTk5OTk5OTk5OTk5OTANCkFBNDAwMDAwMDAwMDAwMDAwMEFBQTBBQTgwMzMzMzMzMzdBQUEwMDAwMEFBQTAwMDAxQUE1MDA4QUEwMDAwMDAwMDAwMDAwMDZBQTAwMDAwMDAwMDAwQUFBQUFBQUFBQUFBQUEwMA0KQUE5MDAwMDAwMDAwMDAwMDAwQUE5MEFBODAwQUFBQUFBQUFBMTAwMDBBQUEwMDAwMDBBQUEwMDRBQTAwMDAwMDAwMDAwMDAwNkFBMDAwMDAwMDAwMDBBQUE5OTk5OTk5OTk5OTAwDQpBQUEwMDAwMDAwMDAwMDAwMDBBQTQwQUE4MDAwOUFBQUFBNzAwMDAwMkFBNjg4ODg4ODhBQUEwMEFBMzAwMDAwMDAwMDAwMDA2QUEwMDAwMDAwMDAwMDZBQTAwMDAwMDAwMDAwMDANCjBBQUEwMDAwMDAwMDAwMDAwQUFBMDBBQTgwMDAwN0FBQTAwMDAwMDBBQUEwMEFBQUFBQUFBQTQwQUFBMDAwMDAwMDAwMDAwMDZBQTAwMDAwMDAwMDAwMEFBQTAwMDAwMDAwMDAwMA0KMDdBQUE2MDAwMDAwMDAxOEFBQTEwMEFBODAwMDAwM0FBQTAwMDAwOUFBMDAwNzk5OTk5OUFBQTAwQUFBOTIwMDAwMDAwMDAwNkFBMDAwMDAwMDAwMDAwM0FBQTcxMDAwMDAwMDAwDQowMDVBQUFBQUFBQUFBQUFBQUExMDAwQUE4MDAwMDAwMEFBQTEwMDJBQTcwMDAwMDAwMDAwMEFBQTAwQUFBQUFBQUFBQUFBOTA2QUFBQUFBQUFBQUFBQTAwMkFBQUFBQUFBQUFBQTINCjAwMDA5QUFBQUFBQUFBQUE1MDAwMDBBQTgwMDAwMDAwMEFBQTcwQUFBMDAwMDAwMDAwMDAwNUFBMzAwMUFBQUFBQUFBQUEwMDBBQUFBQUFBQUFBQUE1MDAwMDZBQUFBQUFBQUFBMA0KfQ0KdGl0bGUg5rOV5Lq657uT566X54mp55CG5Zu+DQoNCnNraW5wYXJhbSBiYWNrZ3JvdW5kQ29sb3IgI0VFRUJEQw0KDQpza2lucGFyYW0gc2VxdWVuY2Ugew0KDQpMaWZlTGluZUJvcmRlckNvbG9yIGJsdWUNCkxpZmVMaW5lQmFja2dyb3VuZENvbG9yICNBOURDREYNClBhcnRpY2lwYW50Qm9yZGVyQ29sb3IgRGVlcFNreUJsdWUNClBhcnRpY2lwYW50QmFja2dyb3VuZENvbG9yIERvZGdlckJsdWUNClBhcnRpY2lwYW50Rm9udE5hbWUgSW1wYWN0DQpQYXJ0aWNpcGFudEZvbnRTaXplIDE3DQpQYXJ0aWNpcGFudEZvbnRDb2xvciAjQTlEQ0RGDQpBY3RvckJhY2tncm91bmRDb2xvciBhcXVhDQoNCn0NCmFjdG9yIHVzZXJzICAjcGluaztsaW5lOnJlZDtsaW5lLmJvbGQ7dGV4dDpyZWRbDQogICAg5YaF572R55So5oi3DQpdDQoNCnJlY3RhbmdsZSDnu5/kuIDmlK/ku5h7DQogICAgbm9kZSB0eXpmSmJvc3NbDQogICAgICAgICAgICBKYm9zcyjkuI3lkK/liqgpDQogICAgICAgICAgICAtIC0gLSAtDQogICAgICAgICAgICAxMC4xNjkuOS4xNg0KICAgICAgICAgICAgLSAtIC0gLQ0KICAgICAgICAgICAgODA4MA0KICAgIF0NCn0NCnJlY3RhbmdsZSDnp5HmioDnvZHmnLrmiL97DQogICAgcmVjdGFuZ2xlIOenkeaKgOe9keacjeWKoXsNCiAgICAgICAgbm9kZSBqYm9zczNbDQogICAgICAgICAgICBKYm9zcyjkuI3lkK/liqgpDQogICAgICAgICAgICAtIC0gLSAtDQogICAgICAgICAgICAxMC4xNzAuNi4xMQ0KICAgICAgICAgICAgLSAtIC0gLQ0KICAgICAgICAgICAgODA4MA0KICAgICAgICBdDQogICAgfQ0KICAgIHJlY3RhbmdsZSDnp5HmioDnvZHmlbDmja7lupN7DQogICAgICAgIG5vZGUgb3JhY2xlM1sNCiAgICAgICAgICAgIG9yYWNsZSjkuLspDQogICAgICAgICAgICA8JG9yYWNsZT4NCiAgICAgICAgICAgIC0gLSAtIC0NCiAgICAgICAgICAgIDEwLjE3MC41LjEwMA0KICAgICAgICAgICAgLSAtIC0gLQ0KICAgICAgICAgICAgMTUyMQ0KICAgICAgICBdDQogICAgfQ0KDQogICAgcmVjdGFuZ2xlIOenkeaKgOe9keWkluWbtHsNCiAgICAgICAgbm9kZSBwcm9wM0xvY2FsWw0KICAgICAgICAgICAgcHJvcOmAmueUqOS6pOaYk+aOpeWPow0KICAgICAgICAgICAgLSAtIC0gLQ0KICAgICAgICAgICAgMTAuMTcwLjYuMTENCiAgICAgICAgICAgIC0gLSAtIC0NCg0KICAgICAgICBdDQogICAgICAgIG5vZGUgcHJvcDNTZXJ2ZXJbDQogICAgICAgICAgICBwcm9wM+acjeWKoeerrw0KICAgICAgICAgICAgLSAtIC0gLQ0KICAgICAgICAgICAgMTAuMTcwLjQzLjE0DQogICAgICAgICAgICAtIC0gLSAtDQogICAgICAgICAgICA4ODg4DQogICAgICAgIF0NCiAgICAgICAgcHJvcDNMb2NhbCA8LT4gcHJvcDNTZXJ2ZXI65a6e5pe2DQogICAgfQ0KICAgDQoNCiAgICB1c2VycyA9WyNyZWRdPT4gamJvc3MzDQogICAgDQoNCiAgICBqYm9zczMgPVsjZ3JheV09PiBvcmFjbGUzDQogICAgDQogICAgamJvc3MzID1bI3JlZF09PiBwcm9wM0xvY2FsDQoNCn0NCg0KcmVjdGFuZ2xlIOWugeahpei3r+acuuaIv3sNCiAgICByZWN0YW5nbGUg5pyN5Yqhew0KICAgICAgICBub2RlIGpib3NzMVsNCiAgICAgICAgICAgIEpib3NzKOWQr+WKqCkNCiAgICAgICAgICAgIC0gLSAtIC0NCiAgICAgICAgICAgIDEwLjE2OS42LjEwDQogICAgICAgICAgICAtIC0gLSAtDQogICAgICAgICAgICA4MDgwDQogICAgICAgIF0NCg0KICAgICAgICBub2RlIGpib3NzMlsNCiAgICAgICAgICAgIEpib3NzKOS4jeWQr+WKqCkNCiAgICAgICAgICAgIC0gLSAtIC0NCiAgICAgICAgICAgIDEwLjE2OS42LjExDQogICAgICAgICAgICAtIC0gLSAtDQogICAgICAgICAgICA4MDgwDQogICAgICAgIF0NCiAgICB9DQogICAgcmVjdGFuZ2xlIOaVsOaNruW6k3sNCiAgICAgICAgbm9kZSBvcmFjbGUxWw0KICAgICAgICAgICAgb3JhY2xlKOS4uykNCiAgICAgICAgICAgIDwkb3JhY2xlPg0KICAgICAgICAgICAgLSAtIC0gLQ0KICAgICAgICAgICAgMTAuMTY5LjUuMTAwDQogICAgICAgICAgICAtIC0gLSAtDQogICAgICAgICAgICAxNTIxDQogICAgICAgIF0NCg0KICAgICAgICBub2RlIG9yYWNsZTJbDQogICAgICAgICAgICBvcmFjbGUo5aSHKQ0KICAgICAgICAgICAgPCRvcmFjbGU+DQogICAgICAgICAgICAtIC0gLSAtDQogICAgICAgICAgICAxMC4xNjkuNS4xMDENCiAgICAgICAgICAgIC0gLSAtIC0NCiAgICAgICAgICAgIDE1MjENCiAgICAgICAgXQ0KICAgIH0NCg0KICAgIHJlY3RhbmdsZSDlpJblm7R7DQogICAgICAgIG5vZGUgcHJvcExvY2FsWw0KICAgICAgICAgICAgcHJvcOmAmueUqOS6pOaYk+aOpeWPow0KICAgICAgICAgICAgLSAtIC0gLQ0KICAgICAgICAgICAgMTAuMTY5LjYuMTANCiAgICAgICAgICAgIC0gLSAtIC0NCg0KICAgICAgICBdDQogICAgICAgIG5vZGUgcHJvcFNlcnZlclsNCiAgICAgICAgICAgIHByb3DmnI3liqHnq68NCiAgICAgICAgICAgIC0gLSAtIC0NCiAgICAgICAgICAgIDEwLjE2OS40My4xNA0KICAgICAgICAgICAgLSAtIC0gLQ0KICAgICAgICAgICAgODg4OA0KICAgICAgICBdDQogICAgICAgIHByb3BMb2NhbCA8LT4gcHJvcFNlcnZlcjrlrp7ml7YNCiAgICB9DQoNCg0KICAgIG9yYWNsZTEgLT4gb3JhY2xlMiA6IOWunuaXtuWQjOatpQ0KICAgIG9yYWNsZTEgLT4gb3JhY2xlMyA6IOWunuaXtuWQjOatpQ0KDQogICAgdXNlcnMgPVsjcmVkXT0+IGpib3NzMQ0KICAgIHVzZXJzID1bI3JlZF09PiBqYm9zczINCg0KICAgIGpib3NzMSA9WyNncmF5XT0+IG9yYWNsZTENCiAgICBqYm9zczEgPVsjZ3JheV09PiBvcmFjbGUyDQoNCiAgICBqYm9zczIgPVsjZ3JheV09PiBvcmFjbGUxDQogICAgamJvc3MyID1bI2dyYXldPT4gb3JhY2xlMg0KDQogICAgamJvc3MxID1bI3JlZF09PiBwcm9wTG9jYWwNCiAgICBqYm9zczIgPVsjcmVkXT0+IHByb3BMb2NhbA0KDQogICAgamJvc3MxID1bI3JlZF09PiB0eXpmSmJvc3MNCiAgICBqYm9zczIgPVsjcmVkXT0+IHR5emZKYm9zcw0KfQ0KQGVuZHVtbA0KClBsYW50VU1MIHZlcnNpb24gMS4yMDIyLjYoVHVlIEp1biAyMSAxNzozNDo0OSBHTVQgMjAyMikKSmF2YSBSdW50aW1lOiBPcGVuSkRLIFJ1bnRpbWUgRW52aXJvbm1lbnQKSlZNOiBPcGVuSkRLIDY0LUJpdCBTZXJ2ZXIgVk0KRGVmYXVsdCBFbmNvZGluZzogVVRGLTgKTGFuZ3VhZ2U6IGVuCkNvdW50cnk6IFVTCi0tPjwvZz48L3N2Zz4=;" vertex="1" parent="1">
            <mxGeometry x="-520" y="390" width="1692" height="609" as="geometry" />
          </mxCell>
        </UserObject>
      </root>
    </mxGraphModel>
  </diagram>
</mxfile>
